<svg width="22" height="22" viewBox="0 0 22 22" fill="none" xmlns="http://www.w3.org/2000/svg">
<path d="M7.1498 3.29883H4.9498C4.03853 3.29883 3.2998 4.03756 3.2998 4.94883V7.14883C3.2998 8.0601 4.03853 8.79883 4.9498 8.79883H7.1498C8.06107 8.79883 8.7998 8.0601 8.7998 7.14883V4.94883C8.7998 4.03756 8.06107 3.29883 7.1498 3.29883Z" stroke="#2F3140" stroke-width="2.3" stroke-linecap="round" stroke-linejoin="round"/>
<path d="M18.6721 4.88252L17.1164 3.32688C16.4721 2.68252 15.4273 2.68252 14.783 3.32688L13.2273 4.88252C12.583 5.52688 12.583 6.5716 13.2273 7.21597L14.783 8.7716C15.4273 9.41597 16.4721 9.41597 17.1164 8.7716L18.6721 7.21597C19.3164 6.5716 19.3164 5.52688 18.6721 4.88252Z" fill="#707781" stroke="#707781" stroke-width="2" stroke-linecap="round" stroke-linejoin="round"/>
<path d="M7.1498 13.1992H4.9498C4.03853 13.1992 3.2998 13.9379 3.2998 14.8492V17.0492C3.2998 17.9605 4.03853 18.6992 4.9498 18.6992H7.1498C8.06107 18.6992 8.7998 17.9605 8.7998 17.0492V14.8492C8.7998 13.9379 8.06107 13.1992 7.1498 13.1992Z" stroke="#2F3140" stroke-width="2.3" stroke-linecap="round" stroke-linejoin="round"/>
<path d="M17.0497 13.1992H14.8497C13.9384 13.1992 13.1997 13.9379 13.1997 14.8492V17.0492C13.1997 17.9605 13.9384 18.6992 14.8497 18.6992H17.0497C17.961 18.6992 18.6997 17.9605 18.6997 17.0492V14.8492C18.6997 13.9379 17.961 13.1992 17.0497 13.1992Z" stroke="#2F3140" stroke-width="2.3" stroke-linecap="round" stroke-linejoin="round"/>
</svg>
