<svg width="98" height="45" viewBox="0 0 98 45" fill="none" xmlns="http://www.w3.org/2000/svg">
<path d="M51.0497 12.1563H52.5064L58.042 25.2305H56.039L54.6004 21.7707H48.9556L47.4989 25.2305H45.4959L51.0497 12.1563ZM49.7386 19.9134H53.8174L51.778 15.0152L49.7386 19.9134ZM58.176 23.9558L59.3413 22.6812C59.6327 23.0211 59.9544 23.2882 60.3064 23.4824C60.6585 23.6766 61.0105 23.7737 61.3625 23.7737C61.751 23.7737 62.0788 23.6645 62.3458 23.446C62.625 23.2153 62.7646 22.9361 62.7646 22.6084C62.7646 22.3292 62.6736 22.0924 62.4915 21.8982C62.3094 21.704 61.9999 21.4915 61.5628 21.2609C61.0773 21.006 60.6463 20.7632 60.27 20.5325C59.9058 20.3019 59.5963 20.0652 59.3413 19.8224C59.0864 19.5674 58.8922 19.2943 58.7587 19.003C58.6373 18.6995 58.5766 18.3596 58.5766 17.9833C58.5766 17.6069 58.6494 17.2549 58.7951 16.9271C58.9407 16.5994 59.141 16.3202 59.396 16.0895C59.663 15.8467 59.9726 15.6586 60.3246 15.525C60.6888 15.3794 61.0773 15.3065 61.49 15.3065C62.0727 15.3065 62.6068 15.434 63.0924 15.6889C63.578 15.9438 64.0211 16.3019 64.4217 16.7632L63.2745 17.9468C62.9953 17.6676 62.71 17.4491 62.4187 17.2913C62.1273 17.1214 61.8056 17.0364 61.4536 17.0364C61.138 17.0364 60.8648 17.1214 60.6342 17.2913C60.4157 17.4613 60.3064 17.6858 60.3064 17.965C60.3064 18.22 60.3975 18.4324 60.5796 18.6024C60.7617 18.7723 61.0105 18.9423 61.3261 19.1122C61.8724 19.3914 62.3458 19.6524 62.7464 19.8952C63.147 20.138 63.4748 20.3929 63.7297 20.66C63.9968 20.9149 64.1971 21.1941 64.3306 21.4976C64.4642 21.789 64.5309 22.1349 64.5309 22.5355C64.5309 22.9483 64.452 23.3367 64.2942 23.7009C64.1485 24.0529 63.93 24.3625 63.6387 24.6296C63.3595 24.8966 63.0196 25.103 62.619 25.2487C62.2305 25.4065 61.7935 25.4854 61.3079 25.4854C60.6888 25.4854 60.1061 25.3579 59.5599 25.103C59.0257 24.8481 58.5644 24.4657 58.176 23.9558ZM65.2964 23.9558L66.4618 22.6812C66.7532 23.0211 67.0748 23.2882 67.4269 23.4824C67.7789 23.6766 68.131 23.7737 68.483 23.7737C68.8715 23.7737 69.1992 23.6645 69.4663 23.446C69.7455 23.2153 69.8851 22.9361 69.8851 22.6084C69.8851 22.3292 69.7941 22.0924 69.612 21.8982C69.4299 21.704 69.1203 21.4915 68.6833 21.2609C68.1977 21.006 67.7668 20.7632 67.3905 20.5325C67.0263 20.3019 66.7167 20.0652 66.4618 19.8224C66.2069 19.5674 66.0126 19.2943 65.8791 19.003C65.7577 18.6995 65.697 18.3596 65.697 17.9833C65.697 17.6069 65.7699 17.2549 65.9155 16.9271C66.0612 16.5994 66.2615 16.3202 66.5164 16.0895C66.7835 15.8467 67.0931 15.6586 67.4451 15.525C67.8093 15.3794 68.1977 15.3065 68.6105 15.3065C69.1932 15.3065 69.7273 15.434 70.2129 15.6889C70.6985 15.9438 71.1415 16.3019 71.5421 16.7632L70.395 17.9468C70.1158 17.6676 69.8305 17.4491 69.5391 17.2913C69.2478 17.1214 68.9261 17.0364 68.5741 17.0364C68.2584 17.0364 67.9853 17.1214 67.7547 17.2913C67.5361 17.4613 67.4269 17.6858 67.4269 17.965C67.4269 18.22 67.5179 18.4324 67.7 18.6024C67.8821 18.7723 68.131 18.9423 68.4466 19.1122C68.9929 19.3914 69.4663 19.6524 69.8669 19.8952C70.2675 20.138 70.5953 20.3929 70.8502 20.66C71.1173 20.9149 71.3176 21.1941 71.4511 21.4976C71.5846 21.789 71.6514 22.1349 71.6514 22.5355C71.6514 22.9483 71.5725 23.3367 71.4147 23.7009C71.269 24.0529 71.0505 24.3625 70.7592 24.6296C70.4799 24.8966 70.14 25.103 69.7394 25.2487C69.351 25.4065 68.914 25.4854 68.4284 25.4854C67.8093 25.4854 67.2266 25.3579 66.6803 25.103C66.1462 24.8481 65.6849 24.4657 65.2964 23.9558ZM72.6193 20.4051C72.6193 19.7495 72.7346 19.1183 72.9653 18.5113C73.1959 17.8922 73.5298 17.3459 73.9668 16.8725C74.4038 16.3991 74.9319 16.0227 75.551 15.7435C76.1701 15.4522 76.862 15.3065 77.6268 15.3065C78.3673 15.3065 79.0471 15.434 79.6662 15.6889C80.2853 15.9438 80.8195 16.3019 81.2686 16.7632C81.7178 17.2245 82.0638 17.7708 82.3066 18.4021C82.5615 19.0333 82.6889 19.7253 82.6889 20.4779V20.8057H74.4584C74.5434 21.7161 74.8772 22.4384 75.4599 22.9725C76.0426 23.5067 76.7831 23.7737 77.6814 23.7737C78.0578 23.7737 78.3916 23.7313 78.6829 23.6463C78.9864 23.5613 79.2596 23.446 79.5024 23.3003C79.7573 23.1546 79.9879 22.9847 80.1943 22.7905C80.4007 22.5962 80.601 22.3838 80.7952 22.1531L82.1973 23.1546C81.736 23.8466 81.1351 24.4111 80.3946 24.8481C79.6541 25.273 78.7497 25.4854 77.6814 25.4854C76.8924 25.4854 76.1822 25.3519 75.551 25.0848C74.9319 24.8177 74.4038 24.4535 73.9668 23.9923C73.5298 23.5188 73.1959 22.9786 72.9653 22.3716C72.7346 21.7525 72.6193 21.097 72.6193 20.4051ZM74.5859 19.2943H80.777C80.5706 18.5174 80.1822 17.9347 79.6116 17.5462C79.0411 17.1578 78.3855 16.9635 77.645 16.9635C76.9167 16.9635 76.2854 17.1517 75.7513 17.528C75.2293 17.9043 74.8408 18.4931 74.5859 19.2943ZM83.3246 15.5614H84.7995V11.9743H86.6568V15.5614H88.3503V17.1821H86.6568V25.2305H84.7995V17.1821H83.3246V15.5614ZM88.9765 20.8765V19.5325H91.7485V16.7745H93.1065V19.5325H95.8505V20.8765H93.1065V23.6205H91.7485V20.8765H88.9765Z" fill="#2F3140"/>
<path d="M54.1577 31.3124H54.8577C54.9975 31.3124 55.1248 31.3261 55.2395 31.3535C55.3543 31.3785 55.4529 31.4209 55.5353 31.4808C55.6201 31.5382 55.685 31.6143 55.7299 31.7091C55.7773 31.804 55.801 31.9213 55.801 32.061C55.801 32.1958 55.7761 32.3106 55.7262 32.4054C55.6763 32.5002 55.6089 32.5776 55.524 32.6375C55.4392 32.6974 55.3394 32.741 55.2246 32.7685C55.1098 32.7959 54.9875 32.8097 54.8577 32.8097H54.5545V34H54.1577V31.3124ZM54.5545 31.6979V32.4241H54.8952C55.0524 32.4241 55.1759 32.3979 55.2657 32.3455C55.3581 32.2931 55.4042 32.1983 55.4042 32.061C55.4042 31.9262 55.3581 31.8327 55.2657 31.7803C55.1734 31.7254 55.0499 31.6979 54.8952 31.6979H54.5545ZM55.8757 33.008C55.8757 32.8633 55.9019 32.7273 55.9543 32.6C56.0092 32.4728 56.0829 32.3617 56.1752 32.2669C56.27 32.1721 56.3811 32.0972 56.5083 32.0423C56.6356 31.9874 56.7716 31.9599 56.9164 31.9599C57.0636 31.9599 57.1996 31.9874 57.3244 32.0423C57.4516 32.0972 57.5614 32.1721 57.6538 32.2669C57.7486 32.3617 57.8222 32.4728 57.8746 32.6C57.9295 32.7273 57.957 32.8633 57.957 33.008C57.957 33.1503 57.9308 33.285 57.8784 33.4123C57.826 33.5396 57.7536 33.6506 57.6613 33.7455C57.5689 33.8403 57.4591 33.9152 57.3319 33.9701C57.2046 34.025 57.0661 34.0524 56.9164 34.0524C56.7666 34.0524 56.6281 34.025 56.5009 33.9701C56.3736 33.9152 56.2638 33.8403 56.1714 33.7455C56.0791 33.6506 56.0067 33.5396 55.9543 33.4123C55.9019 33.285 55.8757 33.1503 55.8757 33.008ZM56.265 33.0118C56.265 33.1091 56.2813 33.1989 56.3137 33.2813C56.3486 33.3636 56.3948 33.436 56.4522 33.4984C56.5096 33.5583 56.5782 33.6057 56.6581 33.6406C56.7379 33.6731 56.824 33.6893 56.9164 33.6893C57.0087 33.6893 57.0948 33.6731 57.1746 33.6406C57.2545 33.6057 57.3231 33.5583 57.3805 33.4984C57.4404 33.436 57.4866 33.3636 57.519 33.2813C57.554 33.1989 57.5714 33.1091 57.5714 33.0118C57.5714 32.9145 57.554 32.8246 57.519 32.7423C57.4866 32.6574 57.4404 32.5851 57.3805 32.5252C57.3231 32.4628 57.2545 32.4141 57.1746 32.3792C57.0948 32.3417 57.0087 32.323 56.9164 32.323C56.824 32.323 56.7379 32.3417 56.6581 32.3792C56.5782 32.4141 56.5096 32.4628 56.4522 32.5252C56.3948 32.5851 56.3486 32.6574 56.3137 32.7423C56.2813 32.8246 56.265 32.9145 56.265 33.0118ZM57.9191 32.0123H58.3009L58.7987 33.3337L59.3265 32.0123H59.5062L60.0302 33.3262L60.5356 32.0123H60.9211L60.1313 34H59.9404L59.4201 32.6786L58.8848 34H58.6977L57.9191 32.0123ZM60.905 33.008C60.905 32.8733 60.9287 32.7435 60.9762 32.6187C61.0236 32.4915 61.0922 32.3792 61.182 32.2819C61.2719 32.1845 61.3804 32.1072 61.5077 32.0498C61.635 31.9899 61.7772 31.9599 61.9344 31.9599C62.0867 31.9599 62.2264 31.9861 62.3537 32.0385C62.4809 32.0909 62.5907 32.1646 62.6831 32.2594C62.7754 32.3542 62.8465 32.4665 62.8964 32.5963C62.9488 32.7261 62.975 32.8683 62.975 33.023V33.0904H61.2831C61.3006 33.2776 61.3692 33.426 61.489 33.5358C61.6088 33.6456 61.761 33.7005 61.9457 33.7005C62.023 33.7005 62.0916 33.6918 62.1515 33.6743C62.2139 33.6569 62.2701 33.6332 62.32 33.6032C62.3724 33.5733 62.4198 33.5383 62.4622 33.4984C62.5046 33.4585 62.5458 33.4148 62.5858 33.3674L62.874 33.5733C62.7792 33.7155 62.6556 33.8316 62.5034 33.9214C62.3512 34.0087 62.1653 34.0524 61.9457 34.0524C61.7835 34.0524 61.6375 34.025 61.5077 33.9701C61.3804 33.9152 61.2719 33.8403 61.182 33.7455C61.0922 33.6481 61.0236 33.5371 60.9762 33.4123C60.9287 33.285 60.905 33.1503 60.905 33.008ZM61.3093 32.7797H62.582C62.5396 32.62 62.4597 32.5002 62.3424 32.4204C62.2252 32.3405 62.0904 32.3006 61.9382 32.3006C61.7884 32.3006 61.6587 32.3393 61.5489 32.4166C61.4416 32.494 61.3617 32.615 61.3093 32.7797ZM63.3052 34V32.0123H63.6533V32.2819C63.7731 32.0672 63.9278 31.9599 64.1175 31.9599C64.1674 31.9599 64.2098 31.9662 64.2447 31.9787C64.2797 31.9911 64.3109 32.0073 64.3383 32.0273L64.1961 32.3455C64.1761 32.338 64.1536 32.3305 64.1287 32.323C64.1062 32.313 64.0813 32.3081 64.0538 32.3081C63.949 32.3081 63.8617 32.3655 63.7918 32.4802C63.7219 32.595 63.687 32.7622 63.687 32.9818V34H63.3052ZM64.315 33.008C64.315 32.8733 64.3387 32.7435 64.3861 32.6187C64.4335 32.4915 64.5021 32.3792 64.592 32.2819C64.6818 32.1845 64.7903 32.1072 64.9176 32.0498C65.0449 31.9899 65.1871 31.9599 65.3443 31.9599C65.4966 31.9599 65.6363 31.9861 65.7636 32.0385C65.8909 32.0909 66.0007 32.1646 66.093 32.2594C66.1853 32.3542 66.2564 32.4665 66.3064 32.5963C66.3588 32.7261 66.385 32.8683 66.385 33.023V33.0904H64.693C64.7105 33.2776 64.7791 33.426 64.8989 33.5358C65.0187 33.6456 65.1709 33.7005 65.3556 33.7005C65.4329 33.7005 65.5016 33.6918 65.5615 33.6743C65.6238 33.6569 65.68 33.6332 65.7299 33.6032C65.7823 33.5733 65.8297 33.5383 65.8721 33.4984C65.9146 33.4585 65.9557 33.4148 65.9957 33.3674L66.2839 33.5733C66.1891 33.7155 66.0655 33.8316 65.9133 33.9214C65.7611 34.0087 65.5752 34.0524 65.3556 34.0524C65.1934 34.0524 65.0474 34.025 64.9176 33.9701C64.7903 33.9152 64.6818 33.8403 64.592 33.7455C64.5021 33.6481 64.4335 33.5371 64.3861 33.4123C64.3387 33.285 64.315 33.1503 64.315 33.008ZM64.7192 32.7797H65.9919C65.9495 32.62 65.8696 32.5002 65.7524 32.4204C65.6351 32.3405 65.5003 32.3006 65.3481 32.3006C65.1984 32.3006 65.0686 32.3393 64.9588 32.4166C64.8515 32.494 64.7716 32.615 64.7192 32.7797ZM66.5737 33.0043C66.5737 32.8546 66.5987 32.7161 66.6486 32.5888C66.701 32.4615 66.7709 32.3517 66.8582 32.2594C66.948 32.1646 67.0516 32.0909 67.1689 32.0385C67.2887 31.9861 67.4172 31.9599 67.5545 31.9599C67.8364 31.9599 68.071 32.0735 68.2582 32.3006V31.245H68.64V34H68.2582V33.7267C68.0635 33.9439 67.829 34.0524 67.5545 34.0524C67.4197 34.0524 67.2924 34.0262 67.1726 33.9738C67.0554 33.9189 66.9518 33.844 66.862 33.7492C66.7721 33.6544 66.701 33.5433 66.6486 33.4161C66.5987 33.2888 66.5737 33.1515 66.5737 33.0043ZM67.6143 33.7005C67.7042 33.7005 67.789 33.6843 67.8689 33.6519C67.9487 33.6194 68.0186 33.5733 68.0785 33.5134C68.1384 33.4535 68.1858 33.3811 68.2207 33.2963C68.2582 33.2114 68.2769 33.1153 68.2769 33.008C68.2769 32.9082 68.2594 32.8159 68.2245 32.731C68.192 32.6462 68.1459 32.5738 68.086 32.5139C68.0286 32.4515 67.96 32.4029 67.8801 32.3679C67.8003 32.333 67.7129 32.3155 67.6181 32.3155C67.5208 32.3155 67.4309 32.3343 67.3486 32.3717C67.2687 32.4091 67.2001 32.459 67.1427 32.5214C67.0853 32.5838 67.0404 32.6574 67.0079 32.7423C66.978 32.8246 66.963 32.912 66.963 33.0043C66.963 33.1016 66.9792 33.1927 67.0117 33.2776C67.0441 33.3599 67.089 33.4335 67.1464 33.4984C67.2063 33.5608 67.2762 33.6107 67.3561 33.6481C67.4359 33.6831 67.522 33.7005 67.6143 33.7005ZM70.0191 31.245H70.4009V32.2893C70.5955 32.0697 70.8314 31.9599 71.1084 31.9599C71.2431 31.9599 71.3704 31.9874 71.4902 32.0423C71.61 32.0947 71.7135 32.1683 71.8009 32.2631C71.8882 32.3555 71.9568 32.4653 72.0067 32.5925C72.0591 32.7198 72.0854 32.8583 72.0854 33.008C72.0854 33.1553 72.0591 33.2925 72.0067 33.4198C71.9543 33.5471 71.8832 33.6581 71.7934 33.7529C71.7035 33.8453 71.5987 33.9189 71.4789 33.9738C71.3592 34.0262 71.2319 34.0524 71.0971 34.0524C70.9549 34.0524 70.8264 34.025 70.7116 33.9701C70.5993 33.9127 70.4957 33.8278 70.4009 33.7155V34H70.0191V31.245ZM71.041 33.6968C71.1358 33.6968 71.2232 33.6793 71.303 33.6444C71.3854 33.607 71.4552 33.5571 71.5126 33.4947C71.5725 33.4298 71.6187 33.3562 71.6511 33.2738C71.6836 33.189 71.6998 33.0991 71.6998 33.0043C71.6998 32.9095 71.6836 32.8209 71.6511 32.7385C71.6187 32.6537 71.5725 32.5801 71.5126 32.5177C71.4552 32.4528 71.3866 32.4016 71.3068 32.3642C71.2269 32.3268 71.1383 32.3081 71.041 32.3081C70.9512 32.3081 70.8663 32.3243 70.7864 32.3567C70.7066 32.3892 70.6355 32.4353 70.5731 32.4952C70.5132 32.5551 70.4658 32.6275 70.4308 32.7123C70.3959 32.7972 70.3784 32.892 70.3784 32.9968C70.3784 33.0991 70.3947 33.194 70.4271 33.2813C70.462 33.3661 70.5094 33.4398 70.5693 33.5021C70.6292 33.562 70.6991 33.6095 70.779 33.6444C70.8613 33.6793 70.9487 33.6968 71.041 33.6968ZM72.4645 32.0123L73.0746 33.4198L73.6848 32.0123H74.0816L72.8613 34.7262H72.4645L72.88 33.8428L72.0752 32.0123H72.4645ZM75.0257 33.4909L75.3589 33.2888C75.5036 33.5533 75.6708 33.6856 75.8605 33.6856C75.9154 33.6856 75.9665 33.6768 76.014 33.6594C76.0639 33.6394 76.1063 33.6144 76.1412 33.5845C76.1762 33.5521 76.2036 33.5146 76.2236 33.4722C76.246 33.4298 76.2573 33.3849 76.2573 33.3374C76.2573 33.2875 76.2485 33.2426 76.2311 33.2027C76.2136 33.1603 76.1849 33.1166 76.145 33.0717C76.105 33.0268 76.0551 32.9793 75.9952 32.9294C75.9353 32.877 75.8617 32.8159 75.7744 32.746C75.6771 32.6662 75.591 32.5925 75.5161 32.5252C75.4412 32.4578 75.3776 32.3917 75.3252 32.3268C75.2753 32.2619 75.2366 32.1958 75.2092 32.1284C75.1842 32.0585 75.1717 31.9824 75.1717 31.9C75.1717 31.8052 75.1892 31.7179 75.2241 31.638C75.2616 31.5582 75.3115 31.4895 75.3739 31.4321C75.4387 31.3722 75.5136 31.3261 75.5985 31.2936C75.6833 31.2612 75.7731 31.245 75.868 31.245C75.9528 31.245 76.0302 31.2562 76.1 31.2787C76.1699 31.3011 76.2348 31.3323 76.2947 31.3722C76.3546 31.4097 76.4107 31.4558 76.4631 31.5107C76.5155 31.5632 76.5655 31.6193 76.6129 31.6792L76.3134 31.9225C76.241 31.8352 76.1699 31.7653 76.1 31.7129C76.0327 31.6605 75.9528 31.6343 75.8605 31.6343C75.7706 31.6343 75.6995 31.6605 75.6471 31.7129C75.5947 31.7628 75.5685 31.8227 75.5685 31.8926C75.5685 31.9674 75.5972 32.0385 75.6546 32.1059C75.712 32.1733 75.8068 32.2581 75.9391 32.3605C76.0439 32.4403 76.14 32.5164 76.2273 32.5888C76.3147 32.6587 76.3895 32.731 76.4519 32.8059C76.5168 32.8808 76.5667 32.9606 76.6016 33.0455C76.6366 33.1278 76.654 33.2202 76.654 33.3225C76.654 33.4273 76.6341 33.5246 76.5942 33.6144C76.5567 33.7043 76.5031 33.7829 76.4332 33.8503C76.3633 33.9176 76.2797 33.9701 76.1824 34.0075C76.0876 34.0474 75.9815 34.0674 75.8642 34.0674C75.6721 34.0674 75.5086 34.0187 75.3739 33.9214C75.2416 33.8241 75.1256 33.6806 75.0257 33.4909ZM76.8588 32.6487C76.8588 32.4416 76.8963 32.2532 76.9711 32.0835C77.046 31.9113 77.1483 31.7628 77.2781 31.638C77.4078 31.5132 77.5601 31.4172 77.7347 31.3498C77.9119 31.2799 78.1003 31.245 78.3 31.245C78.5321 31.245 78.7479 31.2924 78.9476 31.3872C79.1472 31.4796 79.3169 31.6156 79.4566 31.7952L79.1684 32.0535C78.9338 31.769 78.6431 31.6268 78.2962 31.6268C78.154 31.6268 78.0192 31.653 77.892 31.7054C77.7672 31.7553 77.6574 31.8264 77.5626 31.9188C77.4677 32.0086 77.3929 32.1172 77.338 32.2444C77.2831 32.3692 77.2556 32.5064 77.2556 32.6562C77.2556 32.8084 77.2818 32.9482 77.3342 33.0754C77.3891 33.2027 77.4627 33.3125 77.5551 33.4048C77.6499 33.4947 77.761 33.5658 77.8882 33.6182C78.018 33.6681 78.1577 33.6931 78.3075 33.6931C78.4846 33.6931 78.6431 33.6581 78.7829 33.5882C78.9226 33.5159 79.0561 33.4111 79.1834 33.2738L79.4679 33.5433C79.3082 33.718 79.1347 33.849 78.9476 33.9364C78.7629 34.0237 78.5458 34.0674 78.2962 34.0674C78.0791 34.0674 77.882 34.0312 77.7048 33.9588C77.5276 33.8865 77.3754 33.7879 77.2481 33.6631C77.1234 33.5358 77.0273 33.3861 76.9599 33.2139C76.8925 33.0392 76.8588 32.8508 76.8588 32.6487ZM80.1136 31.3124H80.3981L81.2066 33.2514C81.2116 33.2688 81.2179 33.285 81.2254 33.3C81.2328 33.315 81.2391 33.3312 81.2441 33.3487C81.2491 33.3312 81.2553 33.315 81.2628 33.3C81.2703 33.2825 81.2765 33.2651 81.2815 33.2476L82.0863 31.3124H82.3671L82.7863 34H82.4045L82.1275 32.192L81.3751 34H81.1093L80.3981 32.3043L80.3532 32.1883C80.3482 32.2082 80.3445 32.2282 80.342 32.2482C80.3395 32.2681 80.3357 32.2881 80.3307 32.3081L80.0724 34H79.6869L80.1136 31.3124ZM83.9568 32.6487C83.9568 32.4416 83.9943 32.2532 84.0691 32.0835C84.144 31.9113 84.2463 31.7628 84.3761 31.638C84.5058 31.5132 84.6581 31.4172 84.8327 31.3498C85.0099 31.2799 85.1983 31.245 85.398 31.245C85.63 31.245 85.8459 31.2924 86.0455 31.3872C86.2452 31.4796 86.4149 31.6156 86.5546 31.7952L86.2664 32.0535C86.0318 31.769 85.7411 31.6268 85.3942 31.6268C85.252 31.6268 85.1172 31.653 84.99 31.7054C84.8652 31.7553 84.7554 31.8264 84.6605 31.9188C84.5657 32.0086 84.4909 32.1172 84.436 32.2444C84.3811 32.3692 84.3536 32.5064 84.3536 32.6562C84.3536 32.8084 84.3798 32.9482 84.4322 33.0754C84.4871 33.2027 84.5607 33.3125 84.6531 33.4048C84.7479 33.4947 84.8589 33.5658 84.9862 33.6182C85.116 33.6681 85.2557 33.6931 85.4055 33.6931C85.5826 33.6931 85.7411 33.6581 85.8808 33.5882C86.0206 33.5159 86.1541 33.4111 86.2814 33.2738L86.5659 33.5433C86.4061 33.718 86.2327 33.849 86.0455 33.9364C85.8609 34.0237 85.6438 34.0674 85.3942 34.0674C85.1771 34.0674 84.98 34.0312 84.8028 33.9588C84.6256 33.8865 84.4734 33.7879 84.3461 33.6631C84.2213 33.5358 84.1253 33.3861 84.0579 33.2139C83.9905 33.0392 83.9568 32.8508 83.9568 32.6487ZM86.7488 33.0043C86.7488 32.8546 86.7737 32.7161 86.8236 32.5888C86.876 32.4615 86.9459 32.3517 87.0333 32.2594C87.1231 32.1646 87.2267 32.0909 87.3439 32.0385C87.4637 31.9861 87.5922 31.9599 87.7295 31.9599C88.0115 31.9599 88.2461 32.0735 88.4332 32.3006V32.0123H88.815V34H88.4332V33.7267C88.2386 33.9439 88.004 34.0524 87.7295 34.0524C87.5947 34.0524 87.4675 34.0262 87.3477 33.9738C87.2304 33.9189 87.1268 33.844 87.037 33.7492C86.9472 33.6544 86.876 33.5433 86.8236 33.4161C86.7737 33.2888 86.7488 33.1515 86.7488 33.0043ZM87.7894 33.7005C87.8792 33.7005 87.9641 33.6843 88.0439 33.6519C88.1238 33.6194 88.1937 33.5733 88.2535 33.5134C88.3159 33.4535 88.3646 33.3811 88.3995 33.2963C88.437 33.2114 88.4557 33.1153 88.4557 33.008C88.4557 32.9082 88.4382 32.8159 88.4033 32.731C88.3708 32.6462 88.3247 32.5738 88.2648 32.5139C88.2049 32.4515 88.135 32.4029 88.0552 32.3679C87.9753 32.333 87.888 32.3155 87.7931 32.3155C87.6958 32.3155 87.606 32.3343 87.5236 32.3717C87.4438 32.4091 87.3751 32.459 87.3177 32.5214C87.2603 32.5838 87.2154 32.6574 87.183 32.7423C87.153 32.8246 87.1381 32.912 87.1381 33.0043C87.1381 33.1016 87.1543 33.1927 87.1867 33.2776C87.2192 33.3599 87.2641 33.4335 87.3215 33.4984C87.3814 33.5608 87.4512 33.6107 87.5311 33.6481C87.611 33.6831 87.6971 33.7005 87.7894 33.7005ZM89.2512 34.7262V32.0123H89.6331V32.3006C89.8227 32.0735 90.0573 31.9599 90.3368 31.9599C90.474 31.9599 90.6026 31.9861 90.7223 32.0385C90.8421 32.0909 90.9457 32.1646 91.033 32.2594C91.1229 32.3517 91.1927 32.4615 91.2427 32.5888C91.2951 32.7161 91.3213 32.8546 91.3213 33.0043C91.3213 33.1515 91.2951 33.2888 91.2427 33.4161C91.1927 33.5433 91.1229 33.6544 91.033 33.7492C90.9432 33.844 90.8384 33.9189 90.7186 33.9738C90.5988 34.0262 90.4715 34.0524 90.3368 34.0524C90.1945 34.0524 90.066 34.0262 89.9512 33.9738C89.8389 33.9189 89.7329 33.8365 89.6331 33.7267V34.7262H89.2512ZM90.2769 33.7005C90.3692 33.7005 90.4553 33.6831 90.5352 33.6481C90.615 33.6107 90.6837 33.5608 90.7411 33.4984C90.8009 33.4335 90.8471 33.3599 90.8796 33.2776C90.9145 33.1927 90.932 33.1016 90.932 33.0043C90.932 32.912 90.9157 32.8246 90.8833 32.7423C90.8534 32.6574 90.8084 32.5838 90.7485 32.5214C90.6911 32.459 90.6225 32.4091 90.5427 32.3717C90.4628 32.3343 90.3742 32.3155 90.2769 32.3155C90.1821 32.3155 90.0935 32.333 90.0111 32.3679C89.9313 32.4029 89.8614 32.4515 89.8015 32.5139C89.7441 32.5738 89.6979 32.6462 89.663 32.731C89.6306 32.8159 89.6143 32.9082 89.6143 33.008C89.6143 33.1129 89.6318 33.2089 89.6667 33.2963C89.7042 33.3811 89.7528 33.4535 89.8127 33.5134C89.8726 33.5733 89.9425 33.6194 90.0224 33.6519C90.1022 33.6843 90.1871 33.7005 90.2769 33.7005ZM91.6452 34V32.0123H92.027V34H91.6452ZM91.5666 31.4509C91.5666 31.3785 91.5928 31.3173 91.6452 31.2674C91.7001 31.2175 91.7637 31.1926 91.8361 31.1926C91.9085 31.1926 91.9708 31.22 92.0233 31.2749C92.0757 31.3273 92.1019 31.391 92.1019 31.4658C92.1019 31.5382 92.0757 31.6006 92.0233 31.653C91.9708 31.7054 91.9085 31.7316 91.8361 31.7316C91.7587 31.7316 91.6938 31.7041 91.6414 31.6492C91.5915 31.5919 91.5666 31.5257 91.5666 31.4509ZM92.2917 32.0123H92.5949V31.2749H92.9767V32.0123H93.3248V32.3455H92.9767V34H92.5949V32.3455H92.2917V32.0123ZM93.4041 33.0043C93.4041 32.8546 93.4291 32.7161 93.479 32.5888C93.5314 32.4615 93.6012 32.3517 93.6886 32.2594C93.7784 32.1646 93.882 32.0909 93.9993 32.0385C94.1191 31.9861 94.2476 31.9599 94.3848 31.9599C94.6668 31.9599 94.9014 32.0735 95.0886 32.3006V32.0123H95.4704V34H95.0886V33.7267C94.8939 33.9439 94.6593 34.0524 94.3848 34.0524C94.2501 34.0524 94.1228 34.0262 94.003 33.9738C93.8857 33.9189 93.7822 33.844 93.6923 33.7492C93.6025 33.6544 93.5314 33.5433 93.479 33.4161C93.4291 33.2888 93.4041 33.1515 93.4041 33.0043ZM94.4447 33.7005C94.5346 33.7005 94.6194 33.6843 94.6993 33.6519C94.7791 33.6194 94.849 33.5733 94.9089 33.5134C94.9713 33.4535 95.0199 33.3811 95.0549 33.2963C95.0923 33.2114 95.111 33.1153 95.111 33.008C95.111 32.9082 95.0935 32.8159 95.0586 32.731C95.0262 32.6462 94.98 32.5738 94.9201 32.5139C94.8602 32.4515 94.7903 32.4029 94.7105 32.3679C94.6306 32.333 94.5433 32.3155 94.4485 32.3155C94.3511 32.3155 94.2613 32.3343 94.1789 32.3717C94.0991 32.4091 94.0305 32.459 93.9731 32.5214C93.9157 32.5838 93.8708 32.6574 93.8383 32.7423C93.8084 32.8246 93.7934 32.912 93.7934 33.0043C93.7934 33.1016 93.8096 33.1927 93.8421 33.2776C93.8745 33.3599 93.9194 33.4335 93.9768 33.4984C94.0367 33.5608 94.1066 33.6107 94.1864 33.6481C94.2663 33.6831 94.3524 33.7005 94.4447 33.7005ZM96.2397 31.245V34H95.8579V31.245H96.2397Z" fill="#2F3140"/>
<path fill-rule="evenodd" clip-rule="evenodd" d="M10.0385 32.5562C10.022 32.0877 12.0003 32.8381 12.0476 33.26C12.1027 33.7551 10.0527 32.958 10.0385 32.5562ZM19.8724 32.4985C19.4296 33.3268 16.5519 33.6477 16.9755 32.9803C17.4491 32.2343 20.2908 31.7135 19.8724 32.4985ZM12.3745 32.2953C12.3435 31.6969 13.9586 31.7547 14.3053 31.8024C14.7006 31.8579 15.9778 32.1376 15.9591 32.6719C15.9371 33.2826 14.4412 33.1981 14.0483 33.136C13.6862 33.0772 12.3978 32.7497 12.3747 32.2955L12.3745 32.2953ZM19.3096 30.5257C19.1816 31.1397 18.2897 31.5338 17.7321 31.6237C17.1813 31.7113 15.8323 31.5926 16.0242 30.7466C16.2098 29.9271 17.7961 29.3809 18.772 29.7462C19.0856 29.8639 19.3859 30.1604 19.3096 30.5257ZM8.26219 30.2935C8.02364 29.1311 11.2517 30.3656 11.5056 31.4592C11.7815 32.6451 8.48623 31.3883 8.26219 30.2935ZM22.8951 30.2645C22.7526 30.6698 22.1278 31.1039 21.7514 31.2859C21.4003 31.4546 20.0855 31.7779 20.3284 31.0161C20.516 30.4288 21.6476 29.7916 22.3509 29.7593C22.6645 29.7449 23.0332 29.8736 22.8951 30.2645ZM6.24957 30.027C6.65038 29.8106 8.32617 31.1262 8.1793 31.557C7.731 31.7124 6.12931 30.4456 6.24957 30.027ZM11.4878 29.685C11.2692 28.7147 12.5167 28.4715 13.2034 28.5648C13.8271 28.6504 14.7323 29.0678 14.8759 29.7495C15.0757 30.6922 13.8493 30.9365 13.1801 30.8531C12.5585 30.7753 11.639 30.3603 11.4878 29.6852V29.685ZM22.2126 27.8287C22.0803 28.4527 21.4785 29.0088 20.8647 29.1443C20.1273 29.3086 19.1988 28.9811 19.4085 28.0573C19.5576 27.3979 20.1185 26.9161 20.751 26.7428C21.5161 26.534 22.4015 26.9327 22.2126 27.8287ZM14.7996 27.6255C14.6384 26.7405 15.4708 26.1566 16.2656 26.1334C17.0239 26.1099 17.8829 26.5619 18.0221 27.3681C18.329 29.1479 15.1265 29.4143 14.7996 27.6257V27.6255ZM5.09354 27.5377C4.95107 26.9493 5.33869 26.8405 5.81227 27.0304C6.1159 27.1514 6.41381 27.3601 6.66226 27.5678C8.26967 28.9077 8.30616 30.7587 6.26255 29.1587C5.84855 28.8345 5.2182 28.0573 5.09354 27.5377ZM25.2076 27.5678C24.7947 29.0121 22.7788 29.6129 23.1532 28.3461C23.2979 27.8585 23.6897 27.4245 24.0916 27.1425C24.596 26.7872 25.4583 26.6928 25.2076 27.5678ZM7.62371 27.248C7.42935 25.4627 10.3737 26.5219 10.589 28.2917C10.7238 29.3964 9.57345 29.3531 8.87671 28.9378C8.30045 28.5949 7.70088 27.9507 7.62371 27.248ZM3.52922 27.0161C3.28078 26.1245 4.70263 27.4647 4.92469 28.3894C5.13773 29.2777 3.77217 27.8864 3.52922 27.0161ZM5.6654 25.2774C6.37973 25.0143 7.19982 26.5732 6.4569 26.8719C5.74807 27.156 4.85169 25.5761 5.6654 25.2774ZM10.6552 25.9147C10.525 24.9121 11.3594 24.3104 12.2923 24.5446C13.0396 24.7323 13.7053 25.3972 13.8014 26.1833C13.9261 27.1991 13.1027 27.7665 12.1621 27.5445C11.428 27.3714 10.7545 26.674 10.6552 25.9147ZM26.3612 24.0484C27.3449 23.793 26.9452 26.1002 25.9494 26.2258C24.8798 26.3613 25.4086 24.2961 26.3612 24.0484ZM18.8674 23.2656C19.6315 23.0947 20.3722 23.5821 20.5333 24.3471C20.6934 25.1098 20.1767 25.8406 19.436 25.9994C18.6698 26.1636 17.9412 25.6918 17.769 24.928C17.5947 24.1541 18.121 23.4324 18.8674 23.2659V23.2656ZM23.3981 23.5011C24.8895 23.1681 24.7228 25.8649 23.2304 26.1291C21.6628 26.4078 21.8659 23.8441 23.3981 23.5011ZM8.70125 24.0097C9.48176 23.7289 10.239 25.12 9.43537 25.4275C8.66256 25.7241 7.79938 24.3361 8.70125 24.0097ZM3.07763 23.2325C3.5987 23.0459 4.18595 24.6837 3.73347 24.8878C3.20031 25.1299 2.57986 23.41 3.07763 23.2325ZM5.69728 23.0525C6.4292 22.6872 7.18751 24.5081 6.48659 24.7823C6.09369 24.9366 5.72586 24.4971 5.57592 24.1939C5.43894 23.9186 5.35518 23.5255 5.49523 23.2325C5.5724 23.0704 5.5735 23.1148 5.69728 23.0525ZM14.5984 22.1342C15.3547 22.0077 16.1759 22.4873 16.4564 23.1978C16.7788 24.0194 16.3538 24.8354 15.4827 24.9798C14.7088 25.1087 13.8843 24.6244 13.6015 23.895C13.2836 23.0755 13.7484 22.2772 14.5984 22.134V22.1342ZM9.33468 21.9566C10.1968 21.6734 10.7776 23.1367 9.90214 23.3678C9.05215 23.592 8.4781 22.2374 9.33468 21.9566ZM27.6437 21.1405C28.3558 20.8497 28.1859 23.2433 27.4814 23.3399C26.7297 23.4432 27.0111 21.3992 27.6437 21.1405ZM21.0045 20.3111C21.7111 20.17 22.3591 20.662 22.4982 21.3547C22.6363 22.0409 22.1803 22.7447 21.5025 22.8847C19.8311 23.2312 19.2946 20.6498 21.0047 20.3111H21.0045ZM25.0638 20.3066C26.3058 19.9347 26.4692 22.5782 25.2604 22.9523C24.5408 23.1754 24.1973 22.3595 24.2116 21.7667C24.2248 21.2148 24.4931 20.4776 25.0638 20.3066ZM3.57759 20.8307C4.08987 20.6264 4.38229 22.2229 3.87573 22.3628C3.34146 22.5105 3.09632 21.0226 3.57759 20.8307ZM6.38831 20.7329C7.2284 20.5775 7.75387 22.1662 6.94808 22.3195C6.08138 22.4849 5.51941 20.8928 6.38831 20.7329ZM16.9553 19.3751C17.6639 19.264 18.3816 19.7514 18.6256 20.4099C18.9004 21.1504 18.5218 21.9442 17.7237 22.0687C15.9585 22.3451 15.1604 19.6572 16.9553 19.3753V19.3751ZM10.0853 19.9834C10.8139 19.7246 11.3592 21.0536 10.6185 21.2813C9.91313 21.4978 9.36656 20.2387 10.0853 19.9834ZM28.3391 18.5912C28.8479 18.4136 28.8479 20.4632 28.3734 20.5253C27.7971 20.6007 27.8833 18.7522 28.3391 18.5912ZM7.33745 18.6056C8.07267 18.288 8.41038 19.758 7.72595 20.0223C7.01601 20.2965 6.59894 18.9253 7.33745 18.6056ZM4.28071 18.7276C4.88445 18.4145 5.04143 19.8034 4.53245 20.0311C4.18353 20.1877 3.99159 19.8202 3.95949 19.5272C3.93971 19.3518 3.95619 19.1842 4.02127 19.0252C4.09317 18.8499 4.12945 18.8054 4.28071 18.7276ZM11.1054 18.3935C11.8706 18.1425 12.3142 19.3306 11.5647 19.5659C10.835 19.7934 10.357 18.6387 11.1054 18.3935ZM22.4255 17.4464C23.0182 17.2866 23.5538 17.7806 23.7271 18.3225C23.908 18.8921 23.6917 19.607 23.0734 19.7671C21.8061 20.0935 21.0421 17.8186 22.4255 17.4467V17.4464ZM26.0266 17.2432C26.5411 17.0511 26.8867 17.8073 26.9837 18.2058C27.0841 18.6221 27.0465 19.546 26.5433 19.6868C25.6082 19.9489 25.0706 17.6006 26.0266 17.243V17.2432ZM2.51566 17.4164C3.08752 17.1488 3.09412 18.5321 2.64582 18.7431C2.08605 19.0073 2.01218 17.6528 2.51566 17.4164ZM18.5253 16.5149C20.0985 16.1242 20.8988 18.6387 19.3786 18.9808C17.8143 19.3339 17.0028 16.8923 18.5253 16.5149ZM5.15422 16.677C5.76808 16.4337 5.90043 17.624 5.31098 17.825C4.69713 18.0348 4.56697 16.9102 5.15422 16.677ZM8.35453 16.5038C9.08096 16.2363 9.41317 17.7173 8.68674 17.9449C7.96911 18.1702 7.6158 16.7758 8.35453 16.5038ZM3.42325 15.4013C3.90453 15.2437 3.77657 16.4673 3.33267 16.5637C2.84699 16.6703 2.99606 15.5411 3.42325 15.4013ZM23.2801 14.6796C24.4403 14.4341 25.1159 16.5938 24.034 16.8457C22.8727 17.1154 22.1627 14.916 23.2801 14.6796ZM9.47957 14.9661C10.1915 14.7141 10.45 15.8966 9.78979 16.123C9.07326 16.3685 8.76084 15.2204 9.47957 14.9661ZM26.3722 14.6663C26.9927 14.2933 27.8328 16.3451 27.2831 16.6927C26.6791 17.0723 25.7454 15.0438 26.3722 14.6663ZM6.24936 14.8207C6.8852 14.6752 6.82671 15.8188 6.19747 15.9386C5.54844 16.0629 5.57042 14.977 6.24936 14.8207ZM19.5631 13.9291C20.1259 13.7737 20.7167 14.1235 21.0159 14.5807C21.3449 15.0827 21.2578 15.821 20.6063 15.9776C19.2562 16.3006 18.2472 14.2955 19.5631 13.9291ZM4.35722 13.5216C4.864 13.3529 4.72483 14.5385 4.28885 14.6575C3.78096 14.7963 3.88474 13.677 4.35722 13.5216ZM23.5925 12.3304C24.3917 12.0996 25.2738 13.8769 24.4801 14.0779C23.6677 14.2844 22.7779 12.5668 23.5925 12.3304ZM26.2928 12.5013C26.709 12.2393 27.7015 13.8493 27.3229 14.0666C26.8957 14.3121 25.923 12.7333 26.2928 12.5013ZM20.0246 11.6098C21.039 11.2801 22.2535 12.9133 21.2026 13.2463C20.178 13.5704 18.9097 11.9717 20.0246 11.6098ZM0 37.458H30.7431V6.53906H29.6756H0.144889H0.000219862V37.458H0Z" fill="#B2181E"/>
<path fill-rule="evenodd" clip-rule="evenodd" d="M10.6556 25.9127C10.755 26.672 11.4284 27.3694 12.1625 27.5426C13.1031 27.7646 13.9267 27.1972 13.8018 26.1814C13.7057 25.3953 13.0402 24.7302 12.2927 24.5427C11.3598 24.3085 10.5252 24.9102 10.6556 25.9127Z" fill="white"/>
<path fill-rule="evenodd" clip-rule="evenodd" d="M14.7995 27.626C15.1264 29.4146 18.3289 29.1482 18.022 27.3684C17.8828 26.5624 17.0241 26.1104 16.2655 26.1337C15.4707 26.1571 14.6383 26.7411 14.7995 27.6258V27.626Z" fill="white"/>
<path fill-rule="evenodd" clip-rule="evenodd" d="M14.5988 22.1334C13.7488 22.2767 13.284 23.0749 13.6019 23.8944C13.8845 24.6238 14.7092 25.1079 15.4831 24.9792C16.3542 24.8348 16.7792 24.0189 16.4568 23.1972C16.1763 22.4865 15.3551 22.0069 14.5988 22.1336V22.1334Z" fill="white"/>
<path fill-rule="evenodd" clip-rule="evenodd" d="M18.8678 23.2649C18.1216 23.4314 17.595 24.1531 17.7694 24.927C17.9415 25.691 18.6701 26.1626 19.4364 25.9983C20.1771 25.8396 20.6937 25.109 20.5337 24.3461C20.3725 23.5811 19.6318 23.0937 18.8678 23.2646V23.2649Z" fill="white"/>
<path fill-rule="evenodd" clip-rule="evenodd" d="M11.4877 29.6858C11.639 30.3608 12.5587 30.7761 13.18 30.8537C13.8491 30.9371 15.0757 30.6927 14.8758 29.7501C14.7322 29.0684 13.8271 28.6509 13.2033 28.5653C12.5167 28.472 11.2692 28.7153 11.4877 29.6855V29.6858Z" fill="white"/>
<path fill-rule="evenodd" clip-rule="evenodd" d="M7.62395 27.2461C7.70135 27.949 8.30069 28.5929 8.87695 28.9358C9.57347 29.3511 10.7238 29.3942 10.5892 28.2897C10.374 26.5199 7.4296 25.4607 7.62395 27.2461Z" fill="white"/>
<path fill-rule="evenodd" clip-rule="evenodd" d="M16.9559 19.3754C15.1609 19.6573 15.959 22.3453 17.7243 22.0689C18.5224 21.9444 18.901 21.1505 18.6262 20.41C18.3823 19.7515 17.6647 19.2642 16.9559 19.3752V19.3754Z" fill="white"/>
<path fill-rule="evenodd" clip-rule="evenodd" d="M22.2127 27.8278C22.4015 26.9318 21.5161 26.5331 20.751 26.7419C20.1185 26.915 19.5576 27.3968 19.4085 28.0564C19.1988 28.9803 20.1273 29.3077 20.8647 29.1434C21.4785 29.0079 22.0801 28.4518 22.2127 27.8278Z" fill="white"/>
<path fill-rule="evenodd" clip-rule="evenodd" d="M21.0048 20.3094C19.2947 20.6479 19.8314 23.2293 21.5026 22.883C22.1804 22.743 22.6364 22.0392 22.4983 21.3531C22.3592 20.6603 21.7112 20.1683 21.0046 20.3094H21.0048Z" fill="white"/>
<path fill-rule="evenodd" clip-rule="evenodd" d="M19.3093 30.5239C19.3854 30.1586 19.0853 29.8621 18.7718 29.7445C17.7958 29.3792 16.2095 29.9253 16.024 30.7448C15.8318 31.5908 17.1809 31.7096 17.7318 31.622C18.2894 31.532 19.1814 31.138 19.3093 30.5239Z" fill="white"/>
<path fill-rule="evenodd" clip-rule="evenodd" d="M18.5258 16.5138C17.0035 16.8912 17.8148 19.3328 19.3791 18.9797C20.8993 18.6376 20.099 16.123 18.5258 16.5138Z" fill="white"/>
<path fill-rule="evenodd" clip-rule="evenodd" d="M23.3984 23.5011C21.8662 23.844 21.663 26.4077 23.2307 26.1291C24.7233 25.8649 24.89 23.1681 23.3984 23.5011Z" fill="white"/>
<path fill-rule="evenodd" clip-rule="evenodd" d="M5.09379 27.538C5.21846 28.0577 5.8488 28.8349 6.2628 29.1591C8.3062 30.7589 8.26992 28.9081 6.66251 27.5681C6.41407 27.3605 6.11615 27.1517 5.81252 27.0308C5.33894 26.8408 4.95154 26.9496 5.09379 27.538Z" fill="white"/>
<path fill-rule="evenodd" clip-rule="evenodd" d="M8.2621 30.2928C8.48636 31.3875 11.7816 32.6444 11.5055 31.4585C11.2516 30.3649 8.02355 29.1303 8.2621 30.2928Z" fill="white"/>
<path fill-rule="evenodd" clip-rule="evenodd" d="M25.0645 20.3053C24.4938 20.4762 24.2255 21.2134 24.2123 21.7653C24.1981 22.3582 24.5413 23.1743 25.2611 22.951C26.4699 22.5769 26.3065 19.9334 25.0645 20.3053Z" fill="white"/>
<path fill-rule="evenodd" clip-rule="evenodd" d="M22.4259 17.4448C21.0428 17.8167 21.8066 20.0918 23.0739 19.7652C23.6921 19.6054 23.9085 18.8903 23.7275 18.3207C23.5541 17.7789 23.0187 17.2847 22.4259 17.4446V17.4448Z" fill="white"/>
<path fill-rule="evenodd" clip-rule="evenodd" d="M12.3742 32.2944C12.3975 32.7486 13.6857 33.076 14.0478 33.1349C14.4407 33.197 15.9366 33.2815 15.9586 32.6707C15.9773 32.1367 14.7001 31.857 14.3048 31.8013C13.9581 31.7535 12.3432 31.6958 12.374 32.2942L12.3742 32.2944Z" fill="white"/>
<path fill-rule="evenodd" clip-rule="evenodd" d="M19.5632 13.9282C18.2473 14.2946 19.2563 16.2997 20.6065 15.9766C21.2577 15.8201 21.345 15.0818 21.0161 14.5798C20.7168 14.1223 20.1263 13.7725 19.5632 13.9282Z" fill="white"/>
<path fill-rule="evenodd" clip-rule="evenodd" d="M23.2804 14.6796C22.1631 14.9162 22.873 17.1154 24.0343 16.8456C25.1163 16.5936 24.4406 14.4341 23.2804 14.6796Z" fill="white"/>
<path fill-rule="evenodd" clip-rule="evenodd" d="M25.2079 27.5693C25.4585 26.6943 24.5962 26.7887 24.0919 27.144C23.69 27.426 23.2982 27.86 23.1535 28.3476C22.7793 29.6144 24.795 29.0136 25.2079 27.5693Z" fill="white"/>
<path fill-rule="evenodd" clip-rule="evenodd" d="M26.0272 17.2414C25.0712 17.599 25.6088 19.9473 26.5438 19.6853C27.0473 19.5442 27.0847 18.6206 26.9842 18.2042C26.887 17.8055 26.5416 17.0495 26.0272 17.2417V17.2414Z" fill="white"/>
<path fill-rule="evenodd" clip-rule="evenodd" d="M22.8947 30.2641C23.0328 29.8734 22.6639 29.7445 22.3506 29.7589C21.6473 29.7912 20.5158 30.4284 20.3281 31.0157C20.0851 31.7775 21.3999 31.4542 21.751 31.2855C22.1274 31.1035 22.7523 30.6694 22.8947 30.2641Z" fill="white"/>
<path fill-rule="evenodd" clip-rule="evenodd" d="M20.0246 11.6101C18.9096 11.9721 20.178 13.5708 21.2026 13.2466C22.2535 12.9136 21.0392 11.2804 20.0246 11.6101Z" fill="white"/>
<path fill-rule="evenodd" clip-rule="evenodd" d="M26.3616 24.047C25.4089 24.2947 24.8799 26.3597 25.9498 26.2244C26.9455 26.0988 27.3453 23.7919 26.3616 24.047Z" fill="white"/>
<path fill-rule="evenodd" clip-rule="evenodd" d="M19.8725 32.5001C20.2909 31.7151 17.4494 32.2358 16.9756 32.9819C16.5517 33.6492 19.4297 33.3282 19.8725 32.5001Z" fill="white"/>
<path fill-rule="evenodd" clip-rule="evenodd" d="M23.5927 12.3292C22.7778 12.5656 23.6676 14.2833 24.4802 14.0767C25.2739 13.8757 24.3919 12.0984 23.5927 12.3292Z" fill="white"/>
<path fill-rule="evenodd" clip-rule="evenodd" d="M26.3725 14.6662C25.7455 15.0437 26.6795 17.0722 27.2834 16.6926C27.8331 16.345 26.993 14.2932 26.3725 14.6662Z" fill="white"/>
<path fill-rule="evenodd" clip-rule="evenodd" d="M27.644 21.1417C27.0114 21.4004 26.73 23.4444 27.4817 23.3411C28.1862 23.2445 28.3561 20.8509 27.644 21.1417Z" fill="white"/>
<path fill-rule="evenodd" clip-rule="evenodd" d="M5.69769 23.0521C5.57391 23.1143 5.57281 23.0698 5.49564 23.2321C5.35537 23.5253 5.43935 23.9183 5.57633 24.1936C5.72649 24.4967 6.0941 24.9363 6.48699 24.782C7.18791 24.5078 6.42961 22.6868 5.69769 23.0521Z" fill="#F3C3B0"/>
<path fill-rule="evenodd" clip-rule="evenodd" d="M6.38841 20.7333C5.51952 20.8932 6.08149 22.4855 6.94818 22.3199C7.75398 22.1666 7.22851 20.5779 6.38841 20.7333Z" fill="#F3C3B0"/>
<path fill-rule="evenodd" clip-rule="evenodd" d="M5.66575 25.2759C4.85204 25.5746 5.74842 27.1545 6.45725 26.8704C7.20016 26.5716 6.37986 25.0127 5.66575 25.2759Z" fill="#F3C3B0"/>
<path fill-rule="evenodd" clip-rule="evenodd" d="M8.70178 24.0099C7.79969 24.3362 8.66309 25.7242 9.4359 25.4277C10.2397 25.1201 9.48229 23.729 8.70178 24.0099Z" fill="#F3C3B0"/>
<path fill-rule="evenodd" clip-rule="evenodd" d="M9.33537 21.9581C8.47857 22.2389 9.05285 23.5935 9.90284 23.3693C10.7783 23.1384 10.1977 21.6748 9.33537 21.9581Z" fill="#F3C3B0"/>
<path fill-rule="evenodd" clip-rule="evenodd" d="M8.3549 16.5049C7.61638 16.7768 7.96948 18.1714 8.68711 17.9459C9.41353 17.7184 9.0811 16.2373 8.3549 16.5049Z" fill="#F3C3B0"/>
<path fill-rule="evenodd" clip-rule="evenodd" d="M7.33801 18.6072C6.5995 18.9269 7.0168 20.2981 7.72651 20.0239C8.41094 19.7597 8.07323 18.2896 7.33801 18.6072Z" fill="#F3C3B0"/>
<path fill-rule="evenodd" clip-rule="evenodd" d="M10.086 19.9825C9.36727 20.2379 9.91384 21.4969 10.6192 21.2804C11.3599 21.0529 10.8146 19.7238 10.086 19.9825Z" fill="#F3C3B0"/>
<path fill-rule="evenodd" clip-rule="evenodd" d="M11.1061 18.394C10.3575 18.6392 10.8357 19.7941 11.5654 19.5664C12.3149 19.3309 11.8712 18.143 11.1061 18.394Z" fill="#F3C3B0"/>
<path fill-rule="evenodd" clip-rule="evenodd" d="M28.34 18.5929C27.884 18.7539 27.7978 20.6025 28.3743 20.5271C28.849 20.4649 28.849 18.4154 28.34 18.5929Z" fill="white"/>
<path fill-rule="evenodd" clip-rule="evenodd" d="M6.24959 30.0278C6.12933 30.4464 7.73102 31.7132 8.17932 31.5577C8.32619 31.127 6.6504 29.8113 6.24959 30.0278Z" fill="white"/>
<path fill-rule="evenodd" clip-rule="evenodd" d="M3.07773 23.2335C2.57996 23.4111 3.20019 25.131 3.73358 24.8888C4.18627 24.6845 3.5988 23.0469 3.07773 23.2335Z" fill="#F3C3B0"/>
<path fill-rule="evenodd" clip-rule="evenodd" d="M3.52951 27.0159C3.77246 27.8862 5.13802 29.2775 4.92497 28.3892C4.70313 27.4645 3.28107 26.1243 3.52951 27.0159Z" fill="white"/>
<path fill-rule="evenodd" clip-rule="evenodd" d="M9.47995 14.9647C8.76122 15.219 9.07365 16.3671 9.79018 16.1216C10.4504 15.8952 10.1919 14.7127 9.47995 14.9647Z" fill="#F3C3B0"/>
<path fill-rule="evenodd" clip-rule="evenodd" d="M10.0382 32.555C10.0525 32.957 12.1027 33.7541 12.0473 33.2588C11.9998 32.8369 10.0215 32.0865 10.0382 32.555Z" fill="white"/>
<path fill-rule="evenodd" clip-rule="evenodd" d="M26.2932 12.5014C25.9234 12.7334 26.896 14.3122 27.3232 14.0667C27.7018 13.8491 26.7094 12.2394 26.2932 12.5014Z" fill="white"/>
<path fill-rule="evenodd" clip-rule="evenodd" d="M3.57787 20.8305C3.09659 21.0225 3.34174 22.5104 3.876 22.3627C4.38278 22.2227 4.09015 20.6262 3.57787 20.8305Z" fill="#F3C3B0"/>
<path fill-rule="evenodd" clip-rule="evenodd" d="M4.28123 18.7293C4.12996 18.8072 4.09369 18.8514 4.02179 19.027C3.95671 19.1857 3.94022 19.3533 3.96001 19.5289C3.99211 19.8221 4.18405 20.1896 4.53297 20.0328C5.04195 19.8053 4.88497 18.4162 4.28123 18.7293Z" fill="#F3C3B0"/>
<path fill-rule="evenodd" clip-rule="evenodd" d="M5.15478 16.6771C4.56753 16.9104 4.69768 18.035 5.31154 17.8252C5.90099 17.6242 5.76863 16.4341 5.15478 16.6771Z" fill="#F3C3B0"/>
<path fill-rule="evenodd" clip-rule="evenodd" d="M2.51594 17.417C2.01245 17.6534 2.08655 19.008 2.6461 18.7437C3.09439 18.5328 3.0878 17.1495 2.51594 17.417Z" fill="#F3C3B0"/>
<path fill-rule="evenodd" clip-rule="evenodd" d="M6.2499 14.8214C5.57097 14.9779 5.54898 16.0638 6.19801 15.9393C6.82726 15.8195 6.88596 14.6759 6.2499 14.8214Z" fill="#F3C3B0"/>
<path fill-rule="evenodd" clip-rule="evenodd" d="M4.35728 13.5203C3.88479 13.6758 3.78102 14.7948 4.2889 14.6562C4.72488 14.5375 4.86406 13.3516 4.35728 13.5203Z" fill="#F3C3B0"/>
<path fill-rule="evenodd" clip-rule="evenodd" d="M3.42369 15.4007C2.9965 15.5407 2.84743 16.6697 3.33311 16.5631C3.77679 16.4665 3.90497 15.2431 3.42369 15.4007Z" fill="#F3C3B0"/>
<circle cx="30.919" cy="6.54054" r="6.54054" fill="white"/>
<g clip-path="url(#clip0_2621_78970)">
<path d="M30.8018 4.54297V8.76707" stroke="#B2171E" stroke-width="1.20689" stroke-linecap="round" stroke-linejoin="round"/>
<path d="M28.6899 6.65625H32.914" stroke="#B2171E" stroke-width="1.20689" stroke-linecap="round" stroke-linejoin="round"/>
</g>
<defs>
<clipPath id="clip0_2621_78970">
<rect width="7.24131" height="7.24131" fill="white" transform="translate(27.1812 3.03516)"/>
</clipPath>
</defs>
</svg>
