<svg width="20" height="18" viewBox="0 0 20 18" fill="none" xmlns="http://www.w3.org/2000/svg">
<path d="M13.925 1C15.1405 1 16.125 1.9845 16.125 3.2V4.3" stroke="#2F3140" stroke-width="2" stroke-linecap="round" stroke-linejoin="round"/>
<path d="M5.12505 16.4016C3.90955 16.4016 2.92505 15.4171 2.92505 14.2016V13.1016" stroke="#2F3140" stroke-width="2" stroke-linecap="round" stroke-linejoin="round"/>
<path d="M18.05 4.30078L16.125 6.50078L14.2 4.30078H18.05Z" fill="#2F3140" stroke="#2F3140" stroke-width="2" stroke-linecap="round" stroke-linejoin="round"/>
<path d="M1 13.0984L2.925 10.8984L4.85 13.0984H1Z" fill="#2F3140" stroke="#2F3140" stroke-width="2" stroke-linecap="round" stroke-linejoin="round"/>
<path d="M10.6063 5.037C10.6096 4.9732 10.625 4.9138 10.625 4.85C10.625 2.7237 8.90135 1 6.77505 1C4.64875 1 2.92505 2.7237 2.92505 4.85C2.92505 6.6067 4.10975 8.073 5.71795 8.5339" stroke="#2F3140" stroke-width="2" stroke-linecap="round" stroke-linejoin="round"/>
<path d="M12.275 16.3992C14.4013 16.3992 16.125 14.6755 16.125 12.5492C16.125 10.4229 14.4013 8.69922 12.275 8.69922C10.1488 8.69922 8.42505 10.4229 8.42505 12.5492C8.42505 14.6755 10.1488 16.3992 12.275 16.3992Z" fill="#2F3140" stroke="#2F3140" stroke-width="2" stroke-linecap="round" stroke-linejoin="round"/>
</svg>
