<svg width="98" height="45" viewBox="0 0 98 45" fill="none" xmlns="http://www.w3.org/2000/svg">
<path d="M51.0497 12.1556H52.5064L58.042 25.2297H56.039L54.6004 21.77H48.9556L47.4989 25.2297H45.4959L51.0497 12.1556ZM49.7386 19.9127H53.8174L51.778 15.0144L49.7386 19.9127ZM58.176 23.9551L59.3413 22.6805C59.6327 23.0204 59.9544 23.2874 60.3064 23.4817C60.6585 23.6759 61.0105 23.773 61.3625 23.773C61.751 23.773 62.0788 23.6638 62.3458 23.4452C62.625 23.2146 62.7646 22.9354 62.7646 22.6076C62.7646 22.3284 62.6736 22.0917 62.4915 21.8975C62.3094 21.7032 61.9999 21.4908 61.5628 21.2602C61.0773 21.0052 60.6463 20.7624 60.27 20.5318C59.9058 20.3011 59.5963 20.0644 59.3413 19.8216C59.0864 19.5667 58.8922 19.2936 58.7587 19.0022C58.6373 18.6987 58.5766 18.3588 58.5766 17.9825C58.5766 17.6062 58.6494 17.2542 58.7951 16.9264C58.9407 16.5986 59.141 16.3194 59.396 16.0888C59.663 15.846 59.9726 15.6578 60.3246 15.5243C60.6888 15.3786 61.0773 15.3058 61.49 15.3058C62.0727 15.3058 62.6068 15.4332 63.0924 15.6882C63.578 15.9431 64.0211 16.3012 64.4217 16.7625L63.2745 17.9461C62.9953 17.6669 62.71 17.4484 62.4187 17.2906C62.1273 17.1206 61.8056 17.0356 61.4536 17.0356C61.138 17.0356 60.8648 17.1206 60.6342 17.2906C60.4157 17.4605 60.3064 17.6851 60.3064 17.9643C60.3064 18.2192 60.3975 18.4317 60.5796 18.6016C60.7617 18.7716 61.0105 18.9415 61.3261 19.1115C61.8724 19.3907 62.3458 19.6517 62.7464 19.8945C63.147 20.1373 63.4748 20.3922 63.7297 20.6593C63.9968 20.9142 64.1971 21.1934 64.3306 21.4969C64.4642 21.7882 64.5309 22.1342 64.5309 22.5348C64.5309 22.9475 64.452 23.336 64.2942 23.7002C64.1485 24.0522 63.93 24.3618 63.6387 24.6288C63.3595 24.8959 63.0196 25.1023 62.619 25.2479C62.2305 25.4058 61.7935 25.4847 61.3079 25.4847C60.6888 25.4847 60.1061 25.3572 59.5599 25.1023C59.0257 24.8473 58.5644 24.465 58.176 23.9551ZM65.2964 23.9551L66.4618 22.6805C66.7532 23.0204 67.0748 23.2874 67.4269 23.4817C67.7789 23.6759 68.131 23.773 68.483 23.773C68.8715 23.773 69.1992 23.6638 69.4663 23.4452C69.7455 23.2146 69.8851 22.9354 69.8851 22.6076C69.8851 22.3284 69.7941 22.0917 69.612 21.8975C69.4299 21.7032 69.1203 21.4908 68.6833 21.2602C68.1977 21.0052 67.7668 20.7624 67.3905 20.5318C67.0263 20.3011 66.7167 20.0644 66.4618 19.8216C66.2069 19.5667 66.0126 19.2936 65.8791 19.0022C65.7577 18.6987 65.697 18.3588 65.697 17.9825C65.697 17.6062 65.7699 17.2542 65.9155 16.9264C66.0612 16.5986 66.2615 16.3194 66.5164 16.0888C66.7835 15.846 67.0931 15.6578 67.4451 15.5243C67.8093 15.3786 68.1977 15.3058 68.6105 15.3058C69.1932 15.3058 69.7273 15.4332 70.2129 15.6882C70.6985 15.9431 71.1415 16.3012 71.5421 16.7625L70.395 17.9461C70.1158 17.6669 69.8305 17.4484 69.5391 17.2906C69.2478 17.1206 68.9261 17.0356 68.5741 17.0356C68.2584 17.0356 67.9853 17.1206 67.7547 17.2906C67.5361 17.4605 67.4269 17.6851 67.4269 17.9643C67.4269 18.2192 67.5179 18.4317 67.7 18.6016C67.8821 18.7716 68.131 18.9415 68.4466 19.1115C68.9929 19.3907 69.4663 19.6517 69.8669 19.8945C70.2675 20.1373 70.5953 20.3922 70.8502 20.6593C71.1173 20.9142 71.3176 21.1934 71.4511 21.4969C71.5846 21.7882 71.6514 22.1342 71.6514 22.5348C71.6514 22.9475 71.5725 23.336 71.4147 23.7002C71.269 24.0522 71.0505 24.3618 70.7592 24.6288C70.4799 24.8959 70.14 25.1023 69.7394 25.2479C69.351 25.4058 68.914 25.4847 68.4284 25.4847C67.8093 25.4847 67.2266 25.3572 66.6803 25.1023C66.1462 24.8473 65.6849 24.465 65.2964 23.9551ZM72.6193 20.4043C72.6193 19.7488 72.7346 19.1176 72.9653 18.5106C73.1959 17.8915 73.5298 17.3452 73.9668 16.8718C74.4038 16.3983 74.9319 16.022 75.551 15.7428C76.1701 15.4515 76.862 15.3058 77.6268 15.3058C78.3673 15.3058 79.0471 15.4332 79.6662 15.6882C80.2853 15.9431 80.8195 16.3012 81.2686 16.7625C81.7178 17.2238 82.0638 17.7701 82.3066 18.4013C82.5615 19.0326 82.6889 19.7245 82.6889 20.4772V20.8049H74.4584C74.5434 21.7154 74.8772 22.4377 75.4599 22.9718C76.0426 23.5059 76.7831 23.773 77.6814 23.773C78.0578 23.773 78.3916 23.7305 78.6829 23.6455C78.9864 23.5606 79.2596 23.4452 79.5024 23.2996C79.7573 23.1539 79.9879 22.9839 80.1943 22.7897C80.4007 22.5955 80.601 22.383 80.7952 22.1524L82.1973 23.1539C81.736 23.8458 81.1351 24.4103 80.3946 24.8473C79.6541 25.2722 78.7497 25.4847 77.6814 25.4847C76.8924 25.4847 76.1822 25.3511 75.551 25.0841C74.9319 24.817 74.4038 24.4528 73.9668 23.9915C73.5298 23.5181 73.1959 22.9779 72.9653 22.3709C72.7346 21.7518 72.6193 21.0963 72.6193 20.4043ZM74.5859 19.2936H80.777C80.5706 18.5167 80.1822 17.934 79.6116 17.5455C79.0411 17.157 78.3855 16.9628 77.645 16.9628C76.9167 16.9628 76.2854 17.151 75.7513 17.5273C75.2293 17.9036 74.8408 18.4924 74.5859 19.2936ZM83.3246 15.5607H84.7995V11.9735H86.6568V15.5607H88.3503V17.1813H86.6568V25.2297H84.7995V17.1813H83.3246V15.5607ZM88.9765 20.8757V19.5317H91.7485V16.7737H93.1065V19.5317H95.8505V20.8757H93.1065V23.6197H91.7485V20.8757H88.9765Z" fill="white"/>
<path d="M60.436 31.3124H61.136C61.2758 31.3124 61.403 31.3261 61.5178 31.3535C61.6326 31.3785 61.7312 31.4209 61.8135 31.4808C61.8984 31.5382 61.9633 31.6143 62.0082 31.7091C62.0556 31.804 62.0793 31.9213 62.0793 32.061C62.0793 32.1958 62.0544 32.3106 62.0044 32.4054C61.9545 32.5002 61.8872 32.5776 61.8023 32.6375C61.7175 32.6974 61.6176 32.741 61.5028 32.7685C61.3881 32.7959 61.2658 32.8097 61.136 32.8097H60.8328V34H60.436V31.3124ZM60.8328 31.6979V32.4241H61.1734C61.3307 32.4241 61.4542 32.3979 61.544 32.3455C61.6364 32.2931 61.6825 32.1983 61.6825 32.061C61.6825 31.9262 61.6364 31.8327 61.544 31.7803C61.4517 31.7254 61.3282 31.6979 61.1734 31.6979H60.8328ZM61.855 33.008C61.855 32.8633 61.8812 32.7273 61.9337 32.6C61.9886 32.4728 62.0622 32.3617 62.1545 32.2669C62.2493 32.1721 62.3604 32.0972 62.4877 32.0423C62.6149 31.9874 62.7509 31.9599 62.8957 31.9599C63.0429 31.9599 63.1789 31.9874 63.3037 32.0423C63.4309 32.0972 63.5408 32.1721 63.6331 32.2669C63.7279 32.3617 63.8015 32.4728 63.8539 32.6C63.9088 32.7273 63.9363 32.8633 63.9363 33.008C63.9363 33.1503 63.9101 33.285 63.8577 33.4123C63.8053 33.5396 63.7329 33.6506 63.6406 33.7455C63.5482 33.8403 63.4384 33.9152 63.3112 33.9701C63.1839 34.025 63.0454 34.0524 62.8957 34.0524C62.7459 34.0524 62.6074 34.025 62.4802 33.9701C62.3529 33.9152 62.2431 33.8403 62.1508 33.7455C62.0584 33.6506 61.9861 33.5396 61.9337 33.4123C61.8812 33.285 61.855 33.1503 61.855 33.008ZM62.2443 33.0118C62.2443 33.1091 62.2606 33.1989 62.293 33.2813C62.3279 33.3636 62.3741 33.436 62.4315 33.4984C62.4889 33.5583 62.5575 33.6057 62.6374 33.6406C62.7172 33.6731 62.8033 33.6893 62.8957 33.6893C62.988 33.6893 63.0741 33.6731 63.1539 33.6406C63.2338 33.6057 63.3024 33.5583 63.3598 33.4984C63.4197 33.436 63.4659 33.3636 63.4983 33.2813C63.5333 33.1989 63.5507 33.1091 63.5507 33.0118C63.5507 32.9145 63.5333 32.8246 63.4983 32.7423C63.4659 32.6574 63.4197 32.5851 63.3598 32.5252C63.3024 32.4628 63.2338 32.4141 63.1539 32.3792C63.0741 32.3417 62.988 32.323 62.8957 32.323C62.8033 32.323 62.7172 32.3417 62.6374 32.3792C62.5575 32.4141 62.4889 32.4628 62.4315 32.5252C62.3741 32.5851 62.3279 32.6574 62.293 32.7423C62.2606 32.8246 62.2443 32.9145 62.2443 33.0118ZM63.5994 32.0123H63.9812L64.4791 33.3337L65.0069 32.0123H65.1865L65.7106 33.3262L66.2159 32.0123H66.6015L65.8117 34H65.6208L65.1004 32.6786L64.5652 34H64.378L63.5994 32.0123ZM66.2864 33.008C66.2864 32.8733 66.3101 32.7435 66.3575 32.6187C66.405 32.4915 66.4736 32.3792 66.5634 32.2819C66.6533 32.1845 66.7618 32.1072 66.8891 32.0498C67.0164 31.9899 67.1586 31.9599 67.3158 31.9599C67.468 31.9599 67.6078 31.9861 67.7351 32.0385C67.8623 32.0909 67.9721 32.1646 68.0645 32.2594C68.1568 32.3542 68.2279 32.4665 68.2778 32.5963C68.3302 32.7261 68.3564 32.8683 68.3564 33.023V33.0904H66.6645C66.682 33.2776 66.7506 33.426 66.8704 33.5358C66.9901 33.6456 67.1424 33.7005 67.327 33.7005C67.4044 33.7005 67.473 33.6918 67.5329 33.6743C67.5953 33.6569 67.6515 33.6332 67.7014 33.6032C67.7538 33.5733 67.8012 33.5383 67.8436 33.4984C67.886 33.4585 67.9272 33.4148 67.9671 33.3674L68.2554 33.5733C68.1605 33.7155 68.037 33.8316 67.8848 33.9214C67.7326 34.0087 67.5466 34.0524 67.327 34.0524C67.1648 34.0524 67.0188 34.025 66.8891 33.9701C66.7618 33.9152 66.6533 33.8403 66.5634 33.7455C66.4736 33.6481 66.405 33.5371 66.3575 33.4123C66.3101 33.285 66.2864 33.1503 66.2864 33.008ZM66.6907 32.7797H67.9634C67.921 32.62 67.8411 32.5002 67.7238 32.4204C67.6065 32.3405 67.4718 32.3006 67.3196 32.3006C67.1698 32.3006 67.0401 32.3393 66.9303 32.4166C66.823 32.494 66.7431 32.615 66.6907 32.7797ZM68.3876 34V32.0123H68.7357V32.2819C68.8555 32.0672 69.0102 31.9599 69.1999 31.9599C69.2498 31.9599 69.2922 31.9662 69.3271 31.9787C69.3621 31.9911 69.3933 32.0073 69.4207 32.0273L69.2785 32.3455C69.2585 32.338 69.2361 32.3305 69.2111 32.323C69.1886 32.313 69.1637 32.3081 69.1362 32.3081C69.0314 32.3081 68.9441 32.3655 68.8742 32.4802C68.8043 32.595 68.7694 32.7622 68.7694 32.9818V34H68.3876ZM69.0984 33.008C69.0984 32.8733 69.1221 32.7435 69.1695 32.6187C69.2169 32.4915 69.2856 32.3792 69.3754 32.2819C69.4652 32.1845 69.5738 32.1072 69.7011 32.0498C69.8283 31.9899 69.9706 31.9599 70.1278 31.9599C70.28 31.9599 70.4198 31.9861 70.547 32.0385C70.6743 32.0909 70.7841 32.1646 70.8764 32.2594C70.9688 32.3542 71.0399 32.4665 71.0898 32.5963C71.1422 32.7261 71.1684 32.8683 71.1684 33.023V33.0904H69.4765C69.4939 33.2776 69.5626 33.426 69.6824 33.5358C69.8021 33.6456 69.9544 33.7005 70.139 33.7005C70.2164 33.7005 70.285 33.6918 70.3449 33.6743C70.4073 33.6569 70.4634 33.6332 70.5133 33.6032C70.5658 33.5733 70.6132 33.5383 70.6556 33.4984C70.698 33.4585 70.7392 33.4148 70.7791 33.3674L71.0673 33.5733C70.9725 33.7155 70.849 33.8316 70.6968 33.9214C70.5445 34.0087 70.3586 34.0524 70.139 34.0524C69.9768 34.0524 69.8308 34.025 69.7011 33.9701C69.5738 33.9152 69.4652 33.8403 69.3754 33.7455C69.2856 33.6481 69.2169 33.5371 69.1695 33.4123C69.1221 33.285 69.0984 33.1503 69.0984 33.008ZM69.5027 32.7797H70.7754C70.733 32.62 70.6531 32.5002 70.5358 32.4204C70.4185 32.3405 70.2838 32.3006 70.1315 32.3006C69.9818 32.3006 69.852 32.3393 69.7422 32.4166C69.6349 32.494 69.5551 32.615 69.5027 32.7797ZM71.0582 33.0043C71.0582 32.8546 71.0832 32.7161 71.1331 32.5888C71.1855 32.4615 71.2554 32.3517 71.3427 32.2594C71.4325 32.1646 71.5361 32.0909 71.6534 32.0385C71.7732 31.9861 71.9017 31.9599 72.0389 31.9599C72.3209 31.9599 72.5555 32.0735 72.7427 32.3006V31.245H73.1245V34H72.7427V33.7267C72.548 33.9439 72.3134 34.0524 72.0389 34.0524C71.9042 34.0524 71.7769 34.0262 71.6571 33.9738C71.5398 33.9189 71.4363 33.844 71.3464 33.7492C71.2566 33.6544 71.1855 33.5433 71.1331 33.4161C71.0832 33.2888 71.0582 33.1515 71.0582 33.0043ZM72.0988 33.7005C72.1887 33.7005 72.2735 33.6843 72.3534 33.6519C72.4332 33.6194 72.5031 33.5733 72.563 33.5134C72.6229 33.4535 72.6703 33.3811 72.7052 33.2963C72.7427 33.2114 72.7614 33.1153 72.7614 33.008C72.7614 32.9082 72.7439 32.8159 72.709 32.731C72.6765 32.6462 72.6304 32.5738 72.5705 32.5139C72.5131 32.4515 72.4445 32.4029 72.3646 32.3679C72.2847 32.333 72.1974 32.3155 72.1026 32.3155C72.0052 32.3155 71.9154 32.3343 71.8331 32.3717C71.7532 32.4091 71.6846 32.459 71.6272 32.5214C71.5698 32.5838 71.5249 32.6574 71.4924 32.7423C71.4625 32.8246 71.4475 32.912 71.4475 33.0043C71.4475 33.1016 71.4637 33.1927 71.4962 33.2776C71.5286 33.3599 71.5735 33.4335 71.6309 33.4984C71.6908 33.5608 71.7607 33.6107 71.8405 33.6481C71.9204 33.6831 72.0065 33.7005 72.0988 33.7005ZM73.9056 31.245H74.2874V32.2893C74.4821 32.0697 74.7179 31.9599 74.9949 31.9599C75.1297 31.9599 75.2569 31.9874 75.3767 32.0423C75.4965 32.0947 75.6001 32.1683 75.6874 32.2631C75.7748 32.3555 75.8434 32.4653 75.8933 32.5925C75.9457 32.7198 75.9719 32.8583 75.9719 33.008C75.9719 33.1553 75.9457 33.2925 75.8933 33.4198C75.8409 33.5471 75.7698 33.6581 75.6799 33.7529C75.5901 33.8453 75.4853 33.9189 75.3655 33.9738C75.2457 34.0262 75.1184 34.0524 74.9837 34.0524C74.8414 34.0524 74.7129 34.025 74.5981 33.9701C74.4858 33.9127 74.3823 33.8278 74.2874 33.7155V34H73.9056V31.245ZM74.9275 33.6968C75.0224 33.6968 75.1097 33.6793 75.1896 33.6444C75.2719 33.607 75.3418 33.5571 75.3992 33.4947C75.4591 33.4298 75.5052 33.3562 75.5377 33.2738C75.5701 33.189 75.5864 33.0991 75.5864 33.0043C75.5864 32.9095 75.5701 32.8209 75.5377 32.7385C75.5052 32.6537 75.4591 32.5801 75.3992 32.5177C75.3418 32.4528 75.2732 32.4016 75.1933 32.3642C75.1135 32.3268 75.0249 32.3081 74.9275 32.3081C74.8377 32.3081 74.7529 32.3243 74.673 32.3567C74.5931 32.3892 74.522 32.4353 74.4596 32.4952C74.3997 32.5551 74.3523 32.6275 74.3174 32.7123C74.2825 32.7972 74.265 32.892 74.265 32.9968C74.265 33.0991 74.2812 33.194 74.3136 33.2813C74.3486 33.3661 74.396 33.4398 74.4559 33.5021C74.5158 33.562 74.5857 33.6095 74.6655 33.6444C74.7479 33.6793 74.8352 33.6968 74.9275 33.6968ZM76.0521 32.0123L76.6622 33.4198L77.2724 32.0123H77.6692L76.4489 34.7262H76.0521L76.4676 33.8428L75.6628 32.0123H76.0521ZM78.0154 33.4909L78.3485 33.2888C78.4933 33.5533 78.6605 33.6856 78.8501 33.6856C78.905 33.6856 78.9562 33.6768 79.0036 33.6594C79.0535 33.6394 79.0959 33.6144 79.1309 33.5845C79.1658 33.5521 79.1933 33.5146 79.2132 33.4722C79.2357 33.4298 79.2469 33.3849 79.2469 33.3374C79.2469 33.2875 79.2382 33.2426 79.2207 33.2027C79.2033 33.1603 79.1746 33.1166 79.1346 33.0717C79.0947 33.0268 79.0448 32.9793 78.9849 32.9294C78.925 32.877 78.8514 32.8159 78.764 32.746C78.6667 32.6662 78.5806 32.5925 78.5058 32.5252C78.4309 32.4578 78.3673 32.3917 78.3149 32.3268C78.2649 32.2619 78.2263 32.1958 78.1988 32.1284C78.1739 32.0585 78.1614 31.9824 78.1614 31.9C78.1614 31.8052 78.1789 31.7179 78.2138 31.638C78.2512 31.5582 78.3011 31.4895 78.3635 31.4321C78.4284 31.3722 78.5033 31.3261 78.5881 31.2936C78.673 31.2612 78.7628 31.245 78.8576 31.245C78.9425 31.245 79.0198 31.2562 79.0897 31.2787C79.1596 31.3011 79.2245 31.3323 79.2844 31.3722C79.3442 31.4097 79.4004 31.4558 79.4528 31.5107C79.5052 31.5632 79.5551 31.6193 79.6025 31.6792L79.3031 31.9225C79.2307 31.8352 79.1596 31.7653 79.0897 31.7129C79.0223 31.6605 78.9425 31.6343 78.8501 31.6343C78.7603 31.6343 78.6892 31.6605 78.6368 31.7129C78.5844 31.7628 78.5582 31.8227 78.5582 31.8926C78.5582 31.9674 78.5869 32.0385 78.6443 32.1059C78.7017 32.1733 78.7965 32.2581 78.9287 32.3605C79.0336 32.4403 79.1296 32.5164 79.217 32.5888C79.3043 32.6587 79.3792 32.731 79.4416 32.8059C79.5065 32.8808 79.5564 32.9606 79.5913 33.0455C79.6262 33.1278 79.6437 33.2202 79.6437 33.3225C79.6437 33.4273 79.6237 33.5246 79.5838 33.6144C79.5464 33.7043 79.4927 33.7829 79.4229 33.8503C79.353 33.9176 79.2694 33.9701 79.1721 34.0075C79.0772 34.0474 78.9712 34.0674 78.8539 34.0674C78.6617 34.0674 78.4983 34.0187 78.3635 33.9214C78.2313 33.8241 78.1152 33.6806 78.0154 33.4909ZM79.5495 32.6487C79.5495 32.4416 79.587 32.2532 79.6618 32.0835C79.7367 31.9113 79.839 31.7628 79.9688 31.638C80.0985 31.5132 80.2508 31.4172 80.4254 31.3498C80.6026 31.2799 80.791 31.245 80.9907 31.245C81.2228 31.245 81.4386 31.2924 81.6382 31.3872C81.8379 31.4796 82.0076 31.6156 82.1473 31.7952L81.8591 32.0535C81.6245 31.769 81.3338 31.6268 80.9869 31.6268C80.8447 31.6268 80.7099 31.653 80.5827 31.7054C80.4579 31.7553 80.3481 31.8264 80.2533 31.9188C80.1584 32.0086 80.0836 32.1172 80.0287 32.2444C79.9738 32.3692 79.9463 32.5064 79.9463 32.6562C79.9463 32.8084 79.9725 32.9482 80.0249 33.0754C80.0798 33.2027 80.1534 33.3125 80.2458 33.4048C80.3406 33.4947 80.4516 33.5658 80.5789 33.6182C80.7087 33.6681 80.8484 33.6931 80.9982 33.6931C81.1753 33.6931 81.3338 33.6581 81.4735 33.5882C81.6133 33.5159 81.7468 33.4111 81.8741 33.2738L82.1586 33.5433C81.9988 33.718 81.8254 33.849 81.6382 33.9364C81.4536 34.0237 81.2365 34.0674 80.9869 34.0674C80.7698 34.0674 80.5727 34.0312 80.3955 33.9588C80.2183 33.8865 80.0661 33.7879 79.9388 33.6631C79.814 33.5358 79.718 33.3861 79.6506 33.2139C79.5832 33.0392 79.5495 32.8508 79.5495 32.6487ZM82.5053 31.3124H82.7898L83.5984 33.2514C83.6034 33.2688 83.6096 33.285 83.6171 33.3C83.6246 33.315 83.6308 33.3312 83.6358 33.3487C83.6408 33.3312 83.647 33.315 83.6545 33.3C83.662 33.2825 83.6682 33.2651 83.6732 33.2476L84.478 31.3124H84.7588L85.178 34H84.7962L84.5192 32.192L83.7668 34H83.501L82.7898 32.3043L82.7449 32.1883C82.7399 32.2082 82.7362 32.2282 82.7337 32.2482C82.7312 32.2681 82.7274 32.2881 82.7225 32.3081L82.4642 34H82.0786L82.5053 31.3124ZM85.7506 32.6487C85.7506 32.4416 85.788 32.2532 85.8629 32.0835C85.9378 31.9113 86.0401 31.7628 86.1699 31.638C86.2996 31.5132 86.4518 31.4172 86.6265 31.3498C86.8037 31.2799 86.9921 31.245 87.1918 31.245C87.4238 31.245 87.6397 31.2924 87.8393 31.3872C88.039 31.4796 88.2087 31.6156 88.3484 31.7952L88.0602 32.0535C87.8256 31.769 87.5349 31.6268 87.188 31.6268C87.0458 31.6268 86.911 31.653 86.7837 31.7054C86.659 31.7553 86.5492 31.8264 86.4543 31.9188C86.3595 32.0086 86.2846 32.1172 86.2297 32.2444C86.1748 32.3692 86.1474 32.5064 86.1474 32.6562C86.1474 32.8084 86.1736 32.9482 86.226 33.0754C86.2809 33.2027 86.3545 33.3125 86.4469 33.4048C86.5417 33.4947 86.6527 33.5658 86.78 33.6182C86.9098 33.6681 87.0495 33.6931 87.1992 33.6931C87.3764 33.6931 87.5349 33.6581 87.6746 33.5882C87.8144 33.5159 87.9479 33.4111 88.0752 33.2738L88.3596 33.5433C88.1999 33.718 88.0265 33.849 87.8393 33.9364C87.6547 34.0237 87.4376 34.0674 87.188 34.0674C86.9709 34.0674 86.7738 34.0312 86.5966 33.9588C86.4194 33.8865 86.2672 33.7879 86.1399 33.6631C86.0151 33.5358 85.9191 33.3861 85.8517 33.2139C85.7843 33.0392 85.7506 32.8508 85.7506 32.6487ZM88.2436 33.0043C88.2436 32.8546 88.2685 32.7161 88.3185 32.5888C88.3709 32.4615 88.4407 32.3517 88.5281 32.2594C88.6179 32.1646 88.7215 32.0909 88.8388 32.0385C88.9585 31.9861 89.0871 31.9599 89.2243 31.9599C89.5063 31.9599 89.7409 32.0735 89.928 32.3006V32.0123H90.3099V34H89.928V33.7267C89.7334 33.9439 89.4988 34.0524 89.2243 34.0524C89.0896 34.0524 88.9623 34.0262 88.8425 33.9738C88.7252 33.9189 88.6217 33.844 88.5318 33.7492C88.442 33.6544 88.3709 33.5433 88.3185 33.4161C88.2685 33.2888 88.2436 33.1515 88.2436 33.0043ZM89.2842 33.7005C89.374 33.7005 89.4589 33.6843 89.5388 33.6519C89.6186 33.6194 89.6885 33.5733 89.7484 33.5134C89.8108 33.4535 89.8594 33.3811 89.8944 33.2963C89.9318 33.2114 89.9505 33.1153 89.9505 33.008C89.9505 32.9082 89.933 32.8159 89.8981 32.731C89.8657 32.6462 89.8195 32.5738 89.7596 32.5139C89.6997 32.4515 89.6298 32.4029 89.55 32.3679C89.4701 32.333 89.3828 32.3155 89.288 32.3155C89.1906 32.3155 89.1008 32.3343 89.0184 32.3717C88.9386 32.4091 88.87 32.459 88.8126 32.5214C88.7552 32.5838 88.7102 32.6574 88.6778 32.7423C88.6479 32.8246 88.6329 32.912 88.6329 33.0043C88.6329 33.1016 88.6491 33.1927 88.6816 33.2776C88.714 33.3599 88.7589 33.4335 88.8163 33.4984C88.8762 33.5608 88.9461 33.6107 89.0259 33.6481C89.1058 33.6831 89.1919 33.7005 89.2842 33.7005ZM90.4471 34.7262V32.0123H90.8289V32.3006C91.0186 32.0735 91.2532 31.9599 91.5327 31.9599C91.6699 31.9599 91.7984 31.9861 91.9182 32.0385C92.038 32.0909 92.1416 32.1646 92.2289 32.2594C92.3187 32.3517 92.3886 32.4615 92.4385 32.5888C92.4909 32.7161 92.5171 32.8546 92.5171 33.0043C92.5171 33.1515 92.4909 33.2888 92.4385 33.4161C92.3886 33.5433 92.3187 33.6544 92.2289 33.7492C92.1391 33.844 92.0342 33.9189 91.9145 33.9738C91.7947 34.0262 91.6674 34.0524 91.5327 34.0524C91.3904 34.0524 91.2619 34.0262 91.1471 33.9738C91.0348 33.9189 90.9287 33.8365 90.8289 33.7267V34.7262H90.4471ZM91.4728 33.7005C91.5651 33.7005 91.6512 33.6831 91.731 33.6481C91.8109 33.6107 91.8795 33.5608 91.9369 33.4984C91.9968 33.4335 92.043 33.3599 92.0754 33.2776C92.1104 33.1927 92.1278 33.1016 92.1278 33.0043C92.1278 32.912 92.1116 32.8246 92.0792 32.7423C92.0492 32.6574 92.0043 32.5838 91.9444 32.5214C91.887 32.459 91.8184 32.4091 91.7385 32.3717C91.6587 32.3343 91.5701 32.3155 91.4728 32.3155C91.3779 32.3155 91.2893 32.333 91.207 32.3679C91.1271 32.4029 91.0573 32.4515 90.9974 32.5139C90.94 32.5738 90.8938 32.6462 90.8589 32.731C90.8264 32.8159 90.8102 32.9082 90.8102 33.008C90.8102 33.1129 90.8277 33.2089 90.8626 33.2963C90.9 33.3811 90.9487 33.4535 91.0086 33.5134C91.0685 33.5733 91.1384 33.6194 91.2182 33.6519C91.2981 33.6843 91.3829 33.7005 91.4728 33.7005ZM92.5421 34V32.0123H92.9239V34H92.5421ZM92.4635 31.4509C92.4635 31.3785 92.4897 31.3173 92.5421 31.2674C92.597 31.2175 92.6606 31.1926 92.733 31.1926C92.8054 31.1926 92.8677 31.22 92.9201 31.2749C92.9726 31.3273 92.9988 31.391 92.9988 31.4658C92.9988 31.5382 92.9726 31.6006 92.9201 31.653C92.8677 31.7054 92.8054 31.7316 92.733 31.7316C92.6556 31.7316 92.5907 31.7041 92.5383 31.6492C92.4884 31.5919 92.4635 31.5257 92.4635 31.4509ZM92.8896 32.0123H93.1928V31.2749H93.5746V32.0123H93.9227V32.3455H93.5746V34H93.1928V32.3455H92.8896V32.0123ZM93.7031 33.0043C93.7031 32.8546 93.728 32.7161 93.7779 32.5888C93.8303 32.4615 93.9002 32.3517 93.9876 32.2594C94.0774 32.1646 94.181 32.0909 94.2982 32.0385C94.418 31.9861 94.5465 31.9599 94.6838 31.9599C94.9658 31.9599 95.2004 32.0735 95.3875 32.3006V32.0123H95.7693V34H95.3875V33.7267C95.1929 33.9439 94.9583 34.0524 94.6838 34.0524C94.549 34.0524 94.4218 34.0262 94.302 33.9738C94.1847 33.9189 94.0811 33.844 93.9913 33.7492C93.9015 33.6544 93.8303 33.5433 93.7779 33.4161C93.728 33.2888 93.7031 33.1515 93.7031 33.0043ZM94.7437 33.7005C94.8335 33.7005 94.9184 33.6843 94.9982 33.6519C95.0781 33.6194 95.148 33.5733 95.2078 33.5134C95.2702 33.4535 95.3189 33.3811 95.3538 33.2963C95.3913 33.2114 95.41 33.1153 95.41 33.008C95.41 32.9082 95.3925 32.8159 95.3576 32.731C95.3251 32.6462 95.279 32.5738 95.2191 32.5139C95.1592 32.4515 95.0893 32.4029 95.0095 32.3679C94.9296 32.333 94.8423 32.3155 94.7474 32.3155C94.6501 32.3155 94.5603 32.3343 94.4779 32.3717C94.3981 32.4091 94.3294 32.459 94.272 32.5214C94.2146 32.5838 94.1697 32.6574 94.1373 32.7423C94.1073 32.8246 94.0924 32.912 94.0924 33.0043C94.0924 33.1016 94.1086 33.1927 94.141 33.2776C94.1735 33.3599 94.2184 33.4335 94.2758 33.4984C94.3357 33.5608 94.4055 33.6107 94.4854 33.6481C94.5653 33.6831 94.6514 33.7005 94.7437 33.7005ZM96.2397 31.245V34H95.8579V31.245H96.2397Z" fill="white"/>
<path fill-rule="evenodd" clip-rule="evenodd" d="M10.0385 32.5577C10.022 32.0891 12.0003 32.8396 12.0476 33.2615C12.1027 33.7566 10.0527 32.9594 10.0385 32.5577ZM19.8724 32.5C19.4296 33.3283 16.5519 33.6491 16.9755 32.9818C17.4491 32.2357 20.2908 31.715 19.8724 32.5ZM12.3745 32.2968C12.3435 31.6984 13.9586 31.7561 14.3053 31.8039C14.7006 31.8594 15.9778 32.1391 15.9591 32.6733C15.9371 33.284 14.4412 33.1996 14.0483 33.1374C13.6862 33.0786 12.3978 32.7512 12.3747 32.297L12.3745 32.2968ZM19.3096 30.5271C19.1816 31.1412 18.2897 31.5352 17.7321 31.6252C17.1813 31.7128 15.8323 31.594 16.0242 30.748C16.2098 29.9286 17.7961 29.3824 18.772 29.7477C19.0856 29.8653 19.3859 30.1618 19.3096 30.5271ZM8.26219 30.295C8.02364 29.1325 11.2517 30.367 11.5056 31.4607C11.7815 32.6466 8.48623 31.3897 8.26219 30.295ZM22.8951 30.266C22.7526 30.6713 22.1278 31.1054 21.7514 31.2873C21.4003 31.4561 20.0855 31.7793 20.3284 31.0176C20.516 30.4303 21.6476 29.793 22.3509 29.7607C22.6645 29.7464 23.0332 29.8751 22.8951 30.266ZM6.24957 30.0285C6.65038 29.812 8.32617 31.1277 8.1793 31.5584C7.731 31.7139 6.12931 30.4471 6.24957 30.0285ZM11.4878 29.6864C11.2692 28.7162 12.5167 28.4729 13.2034 28.5662C13.8271 28.6518 14.7323 29.0693 14.8759 29.751C15.0757 30.6936 13.8493 30.938 13.1801 30.8546C12.5585 30.7768 11.639 30.3617 11.4878 29.6867V29.6864ZM22.2126 27.8301C22.0803 28.4541 21.4785 29.0103 20.8647 29.1458C20.1273 29.3101 19.1988 28.9826 19.4085 28.0588C19.5576 27.3994 20.1185 26.9176 20.751 26.7442C21.5161 26.5355 22.4015 26.9342 22.2126 27.8301ZM14.7996 27.6269C14.6384 26.742 15.4708 26.158 16.2656 26.1348C17.0239 26.1114 17.8829 26.5633 18.0221 27.3695C18.329 29.1493 15.1265 29.4158 14.7996 27.6271V27.6269ZM5.09354 27.5391C4.95107 26.9507 5.33869 26.842 5.81227 27.0319C6.1159 27.1528 6.41381 27.3616 6.66226 27.5692C8.26967 28.9092 8.30616 30.7602 6.26255 29.1602C5.84855 28.836 5.2182 28.0588 5.09354 27.5391ZM25.2076 27.5692C24.7947 29.0136 22.7788 29.6144 23.1532 28.3476C23.2979 27.86 23.6897 27.4259 24.0916 27.144C24.596 26.7887 25.4583 26.6942 25.2076 27.5692ZM7.62371 27.2495C7.42935 25.4642 10.3737 26.5233 10.589 28.2932C10.7238 29.3979 9.57345 29.3545 8.87671 28.9393C8.30045 28.5963 7.70088 27.9522 7.62371 27.2495ZM3.52922 27.0175C3.28078 26.126 4.70263 27.4662 4.92469 28.3909C5.13773 29.2791 3.77217 27.8878 3.52922 27.0175ZM5.6654 25.2789C6.37973 25.0157 7.19982 26.5746 6.4569 26.8734C5.74807 27.1575 4.85169 25.5776 5.6654 25.2789ZM10.6552 25.9161C10.525 24.9136 11.3594 24.3119 12.2923 24.5461C13.0396 24.7338 13.7053 25.3987 13.8014 26.1848C13.9261 27.2006 13.1027 27.768 12.1621 27.546C11.428 27.3729 10.7545 26.6755 10.6552 25.9161ZM26.3612 24.0499C27.3449 23.7945 26.9452 26.1016 25.9494 26.2272C24.8798 26.3628 25.4086 24.2975 26.3612 24.0499ZM18.8674 23.2671C19.6315 23.0962 20.3722 23.5835 20.5333 24.3486C20.6934 25.1113 20.1767 25.8421 19.436 26.0008C18.6698 26.1651 17.9412 25.6932 17.769 24.9295C17.5947 24.1556 18.121 23.4338 18.8674 23.2673V23.2671ZM23.3981 23.5026C24.8895 23.1696 24.7228 25.8664 23.2304 26.1306C21.6628 26.4092 21.8659 23.8456 23.3981 23.5026ZM8.70125 24.0112C9.48176 23.7304 10.239 25.1214 9.43537 25.429C8.66256 25.7255 7.79938 24.3376 8.70125 24.0112ZM3.07763 23.2339C3.5987 23.0473 4.18595 24.6852 3.73347 24.8892C3.20031 25.1314 2.57986 23.4115 3.07763 23.2339ZM5.69728 23.054C6.4292 22.6887 7.18751 24.5096 6.48659 24.7838C6.09369 24.9381 5.72586 24.4985 5.57592 24.1954C5.43894 23.9201 5.35518 23.5269 5.49523 23.2339C5.5724 23.0719 5.5735 23.1163 5.69728 23.054ZM14.5984 22.1356C15.3547 22.0092 16.1759 22.4888 16.4564 23.1992C16.7788 24.0209 16.3538 24.8368 15.4827 24.9812C14.7088 25.1101 13.8843 24.6259 13.6015 23.8964C13.2836 23.077 13.7484 22.2787 14.5984 22.1354V22.1356ZM9.33468 21.9581C10.1968 21.6748 10.7776 23.1382 9.90214 23.3693C9.05215 23.5935 8.4781 22.2389 9.33468 21.9581ZM27.6437 21.1419C28.3558 20.8512 28.1859 23.2448 27.4814 23.3414C26.7297 23.4447 27.0111 21.4006 27.6437 21.1419ZM21.0045 20.3125C21.7111 20.1714 22.3591 20.6634 22.4982 21.3562C22.6363 22.0423 22.1803 22.7462 21.5025 22.8861C19.8311 23.2326 19.2946 20.6513 21.0047 20.3125H21.0045ZM25.0638 20.3081C26.3058 19.9362 26.4692 22.5797 25.2604 22.9538C24.5408 23.1769 24.1973 22.361 24.2116 21.7681C24.2248 21.2162 24.4931 20.479 25.0638 20.3081ZM3.57759 20.8321C4.08987 20.6278 4.38229 22.2243 3.87573 22.3643C3.34146 22.512 3.09632 21.0241 3.57759 20.8321ZM6.38831 20.7344C7.2284 20.579 7.75387 22.1677 6.94808 22.3209C6.08138 22.4863 5.51941 20.8943 6.38831 20.7344ZM16.9553 19.3765C17.6639 19.2655 18.3816 19.7529 18.6256 20.4114C18.9004 21.1519 18.5218 21.9457 17.7237 22.0702C15.9585 22.3466 15.1604 19.6587 16.9553 19.3767V19.3765ZM10.0853 19.9848C10.8139 19.7261 11.3592 21.055 10.6185 21.2828C9.91313 21.4993 9.36656 20.2402 10.0853 19.9848ZM28.3391 18.5926C28.8479 18.4151 28.8479 20.4646 28.3734 20.5268C27.7971 20.6022 27.8833 18.7536 28.3391 18.5926ZM7.33745 18.607C8.07267 18.2895 8.41038 19.7595 7.72595 20.0237C7.01601 20.2979 6.59894 18.9268 7.33745 18.607ZM4.28071 18.7291C4.88445 18.416 5.04143 19.8048 4.53245 20.0326C4.18353 20.1891 3.99159 19.8216 3.95949 19.5286C3.93971 19.3533 3.95619 19.1857 4.02127 19.0267C4.09317 18.8514 4.12945 18.8069 4.28071 18.7291ZM11.1054 18.395C11.8706 18.144 12.3142 19.3321 11.5647 19.5673C10.835 19.7949 10.357 18.6402 11.1054 18.395ZM22.4255 17.4479C23.0182 17.288 23.5538 17.782 23.7271 18.324C23.908 18.8936 23.6917 19.6085 23.0734 19.7686C21.8061 20.0949 21.0421 17.8201 22.4255 17.4481V17.4479ZM26.0266 17.2447C26.5411 17.0526 26.8867 17.8088 26.9837 18.2072C27.0841 18.6236 27.0465 19.5474 26.5433 19.6883C25.6082 19.9503 25.0706 17.602 26.0266 17.2445V17.2447ZM2.51566 17.4178C3.08752 17.1503 3.09412 18.5336 2.64582 18.7446C2.08605 19.0088 2.01218 17.6542 2.51566 17.4178ZM18.5253 16.5163C20.0985 16.1256 20.8988 18.6402 19.3786 18.9823C17.8143 19.3354 17.0028 16.8938 18.5253 16.5163ZM5.15422 16.6784C5.76808 16.4352 5.90043 17.6255 5.31098 17.8265C4.69713 18.0363 4.56697 16.9117 5.15422 16.6784ZM8.35453 16.5053C9.08096 16.2377 9.41317 17.7188 8.68674 17.9463C7.96911 18.1716 7.6158 16.7773 8.35453 16.5053ZM3.42325 15.4028C3.90453 15.2451 3.77657 16.4688 3.33267 16.5652C2.84699 16.6718 2.99606 15.5425 3.42325 15.4028ZM23.2801 14.681C24.4403 14.4356 25.1159 16.5953 24.034 16.8471C22.8727 17.1169 22.1627 14.9174 23.2801 14.681ZM9.47957 14.9676C10.1915 14.7155 10.45 15.8981 9.78979 16.1245C9.07326 16.37 8.76084 15.2219 9.47957 14.9676ZM26.3722 14.6678C26.9927 14.2947 27.8328 16.3465 27.2831 16.6941C26.6791 17.0738 25.7454 15.0452 26.3722 14.6678ZM6.24936 14.8221C6.8852 14.6766 6.82671 15.8203 6.19747 15.9401C5.54844 16.0644 5.57042 14.9784 6.24936 14.8221ZM19.5631 13.9306C20.1259 13.7751 20.7167 14.1249 21.0159 14.5822C21.3449 15.0841 21.2578 15.8225 20.6063 15.979C19.2562 16.3021 18.2472 14.297 19.5631 13.9306ZM4.35722 13.523C4.864 13.3543 4.72483 14.54 4.28885 14.6589C3.78096 14.7978 3.88474 13.6785 4.35722 13.523ZM23.5925 12.3319C24.3917 12.101 25.2738 13.8784 24.4801 14.0794C23.6677 14.2859 22.7779 12.5682 23.5925 12.3319ZM26.2928 12.5028C26.709 12.2408 27.7015 13.8507 27.3229 14.0681C26.8957 14.3135 25.923 12.7347 26.2928 12.5028ZM20.0246 11.6112C21.039 11.2816 22.2535 12.9147 21.2026 13.2477C20.178 13.5719 18.9097 11.9732 20.0246 11.6112ZM0 37.4595H30.7431V6.54053H29.6756H0.144889H0.000219862V37.4595H0Z" fill="#B2181E"/>
<path fill-rule="evenodd" clip-rule="evenodd" d="M10.6555 25.9159C10.7548 26.6752 11.4283 27.3726 12.1624 27.5458C13.103 27.7678 13.9266 27.2004 13.8017 26.1845C13.7056 25.3985 13.0401 24.7333 12.2926 24.5458C11.3597 24.3117 10.5251 24.9133 10.6555 25.9159Z" fill="white"/>
<path fill-rule="evenodd" clip-rule="evenodd" d="M14.7997 27.627C15.1267 29.4156 18.3292 29.1492 18.0223 27.3694C17.8831 26.5634 17.0243 26.1114 16.2658 26.1346C15.471 26.1581 14.6386 26.7421 14.7997 27.6268V27.627Z" fill="white"/>
<path fill-rule="evenodd" clip-rule="evenodd" d="M14.5989 22.1354C13.7489 22.2787 13.2841 23.077 13.6021 23.8964C13.8846 24.6259 14.7093 25.1099 15.4832 24.9812C16.3543 24.8369 16.7793 24.0209 16.457 23.1992C16.1764 22.4886 15.3552 22.009 14.5989 22.1357V22.1354Z" fill="white"/>
<path fill-rule="evenodd" clip-rule="evenodd" d="M18.8678 23.2667C18.1216 23.4332 17.595 24.1549 17.7694 24.9288C17.9415 25.6928 18.6701 26.1645 19.4364 26.0002C20.1771 25.8414 20.6937 25.1108 20.5337 24.348C20.3725 23.5829 19.6318 23.0955 18.8678 23.2665V23.2667Z" fill="white"/>
<path fill-rule="evenodd" clip-rule="evenodd" d="M11.4879 29.6865C11.6391 30.3616 12.5588 30.7768 13.1801 30.8544C13.8492 30.9378 15.0758 30.6935 14.8759 29.7508C14.7324 29.0691 13.8272 28.6517 13.2035 28.5661C12.5168 28.4728 11.2693 28.716 11.4879 29.6863V29.6865Z" fill="white"/>
<path fill-rule="evenodd" clip-rule="evenodd" d="M7.62408 27.2492C7.70147 27.9522 8.30081 28.5961 8.87707 28.939C9.57359 29.3543 10.7239 29.3974 10.5894 28.2929C10.3741 26.5231 7.42972 25.4639 7.62408 27.2492Z" fill="white"/>
<path fill-rule="evenodd" clip-rule="evenodd" d="M16.9559 19.3765C15.1609 19.6584 15.959 22.3464 17.7243 22.07C18.5224 21.9455 18.901 21.1516 18.6262 20.4111C18.3823 19.7526 17.6647 19.2653 16.9559 19.3763V19.3765Z" fill="white"/>
<path fill-rule="evenodd" clip-rule="evenodd" d="M22.2128 27.8299C22.4016 26.9339 21.5163 26.5352 20.7511 26.7439C20.1186 26.9171 19.5577 27.3989 19.4087 28.0585C19.1989 28.9823 20.1274 29.3098 20.8648 29.1455C21.4787 29.01 22.0802 28.4539 22.2128 27.8299Z" fill="white"/>
<path fill-rule="evenodd" clip-rule="evenodd" d="M21.0051 20.3123C19.295 20.6508 19.8317 23.2322 21.5028 22.8859C22.1807 22.7459 22.6367 22.0421 22.4986 21.356C22.3594 20.6632 21.7115 20.1712 21.0048 20.3123H21.0051Z" fill="white"/>
<path fill-rule="evenodd" clip-rule="evenodd" d="M19.3095 30.527C19.3855 30.1617 19.0854 29.8652 18.7719 29.7475C17.7959 29.3822 16.2096 29.9284 16.0241 30.7479C15.8319 31.5939 17.181 31.7126 17.732 31.6251C18.2895 31.5351 19.1815 31.141 19.3095 30.527Z" fill="white"/>
<path fill-rule="evenodd" clip-rule="evenodd" d="M18.5257 16.5163C17.0034 16.8938 17.8147 19.3354 19.379 18.9823C20.8991 18.6402 20.0988 16.1256 18.5257 16.5163Z" fill="white"/>
<path fill-rule="evenodd" clip-rule="evenodd" d="M23.3985 23.5022C21.8663 23.8451 21.6632 26.4088 23.2308 26.1302C24.7234 25.866 24.8901 23.1692 23.3985 23.5022Z" fill="white"/>
<path fill-rule="evenodd" clip-rule="evenodd" d="M5.09367 27.5391C5.21833 28.0588 5.84868 28.836 6.26268 29.1602C8.30608 30.76 8.2698 28.9092 6.66239 27.5692C6.41394 27.3616 6.11603 27.1528 5.8124 27.0319C5.33882 26.8419 4.95142 26.9507 5.09367 27.5391Z" fill="white"/>
<path fill-rule="evenodd" clip-rule="evenodd" d="M8.2621 30.2947C8.48636 31.3895 11.7816 32.6463 11.5055 31.4605C11.2516 30.3668 8.02355 29.1323 8.2621 30.2947Z" fill="white"/>
<path fill-rule="evenodd" clip-rule="evenodd" d="M25.0644 20.3079C24.4936 20.4788 24.2254 21.216 24.2122 21.7679C24.1979 22.3607 24.5411 23.1769 25.261 22.9535C26.4698 22.5794 26.3064 19.9359 25.0644 20.3079Z" fill="white"/>
<path fill-rule="evenodd" clip-rule="evenodd" d="M22.4258 17.4479C21.0427 17.8198 21.8065 20.0949 23.0738 19.7683C23.692 19.6084 23.9083 18.8933 23.7274 18.3237C23.5539 17.782 23.0186 17.2878 22.4258 17.4476V17.4479Z" fill="white"/>
<path fill-rule="evenodd" clip-rule="evenodd" d="M12.3744 32.2966C12.3977 32.7508 13.6859 33.0782 14.048 33.1371C14.4409 33.1992 15.9369 33.2837 15.9588 32.6729C15.9775 32.1389 14.7004 31.8592 14.305 31.8035C13.9583 31.7557 12.3434 31.698 12.3742 32.2964L12.3744 32.2966Z" fill="white"/>
<path fill-rule="evenodd" clip-rule="evenodd" d="M19.5635 13.9305C18.2476 14.2969 19.2565 16.302 20.6067 15.979C21.2579 15.8224 21.3452 15.0841 21.0163 14.5821C20.7171 14.1246 20.1265 13.7748 19.5635 13.9305Z" fill="white"/>
<path fill-rule="evenodd" clip-rule="evenodd" d="M23.2804 14.681C22.1631 14.9176 22.873 17.1169 24.0343 16.8471C25.1163 16.595 24.4406 14.4356 23.2804 14.681Z" fill="white"/>
<path fill-rule="evenodd" clip-rule="evenodd" d="M25.2078 27.5693C25.4584 26.6943 24.5961 26.7887 24.0917 27.144C23.6898 27.426 23.298 27.86 23.1534 28.3476C22.7792 29.6144 24.7949 29.0136 25.2078 27.5693Z" fill="white"/>
<path fill-rule="evenodd" clip-rule="evenodd" d="M26.0269 17.2447C25.071 17.6023 25.6085 19.9506 26.5436 19.6886C27.0471 19.5475 27.0845 18.6239 26.984 18.2075C26.8868 17.8088 26.5414 17.0528 26.0269 17.245V17.2447Z" fill="white"/>
<path fill-rule="evenodd" clip-rule="evenodd" d="M22.895 30.266C23.0331 29.8752 22.6641 29.7463 22.3508 29.7607C21.6475 29.793 20.5161 30.4303 20.3283 31.0176C20.0854 31.7793 21.4002 31.456 21.7513 31.2873C22.1277 31.1053 22.7525 30.6713 22.895 30.266Z" fill="white"/>
<path fill-rule="evenodd" clip-rule="evenodd" d="M20.0247 11.6112C18.9098 11.9732 20.1781 13.5719 21.2027 13.2477C22.2536 12.9147 21.0393 11.2815 20.0247 11.6112Z" fill="white"/>
<path fill-rule="evenodd" clip-rule="evenodd" d="M26.3616 24.0495C25.4089 24.2971 24.8799 26.3622 25.9498 26.2268C26.9455 26.1012 27.3453 23.7943 26.3616 24.0495Z" fill="white"/>
<path fill-rule="evenodd" clip-rule="evenodd" d="M19.8724 32.4997C20.2908 31.7147 17.4493 32.2355 16.9755 32.9815C16.5516 33.6489 19.4296 33.3278 19.8724 32.4997Z" fill="white"/>
<path fill-rule="evenodd" clip-rule="evenodd" d="M23.5928 12.3319C22.778 12.5683 23.6677 14.286 24.4804 14.0794C25.2741 13.8784 24.392 12.1011 23.5928 12.3319Z" fill="white"/>
<path fill-rule="evenodd" clip-rule="evenodd" d="M26.3725 14.6678C25.7455 15.0453 26.6795 17.0738 27.2834 16.6942C27.8331 16.3466 26.993 14.2948 26.3725 14.6678Z" fill="white"/>
<path fill-rule="evenodd" clip-rule="evenodd" d="M27.6442 21.1417C27.0117 21.4004 26.7303 23.4444 27.482 23.3411C28.1864 23.2445 28.3564 20.8509 27.6442 21.1417Z" fill="white"/>
<path fill-rule="evenodd" clip-rule="evenodd" d="M5.69757 23.0535C5.57379 23.1156 5.57269 23.0712 5.49552 23.2335C5.35524 23.5267 5.43923 23.9196 5.5762 24.1949C5.72637 24.498 6.09398 24.9376 6.48687 24.7833C7.18779 24.5091 6.42949 22.6882 5.69757 23.0535Z" fill="#F3C3B0"/>
<path fill-rule="evenodd" clip-rule="evenodd" d="M6.38866 20.7342C5.51976 20.8941 6.08173 22.4864 6.94843 22.3207C7.75422 22.1675 7.22875 20.5788 6.38866 20.7342Z" fill="#F3C3B0"/>
<path fill-rule="evenodd" clip-rule="evenodd" d="M5.66575 25.2787C4.85204 25.5774 5.74842 27.1573 6.45725 26.8732C7.20016 26.5744 6.37986 25.0156 5.66575 25.2787Z" fill="#F3C3B0"/>
<path fill-rule="evenodd" clip-rule="evenodd" d="M8.70154 24.0107C7.79944 24.3371 8.66284 25.7251 9.43566 25.4285C10.2395 25.121 9.48205 23.7299 8.70154 24.0107Z" fill="#F3C3B0"/>
<path fill-rule="evenodd" clip-rule="evenodd" d="M9.33525 21.9579C8.47845 22.2387 9.05273 23.5933 9.90272 23.369C10.7782 23.1382 10.1976 21.6746 9.33525 21.9579Z" fill="#F3C3B0"/>
<path fill-rule="evenodd" clip-rule="evenodd" d="M8.3549 16.5052C7.61638 16.7772 7.96948 18.1718 8.68711 17.9463C9.41353 17.7187 9.0811 16.2377 8.3549 16.5052Z" fill="#F3C3B0"/>
<path fill-rule="evenodd" clip-rule="evenodd" d="M7.33826 18.6071C6.59974 18.9268 7.01704 20.298 7.72675 20.0238C8.41118 19.7595 8.07348 18.2895 7.33826 18.6071Z" fill="#F3C3B0"/>
<path fill-rule="evenodd" clip-rule="evenodd" d="M10.0859 19.9848C9.36714 20.2402 9.91372 21.4992 10.619 21.2828C11.3598 21.0552 10.8145 19.7261 10.0859 19.9848Z" fill="#F3C3B0"/>
<path fill-rule="evenodd" clip-rule="evenodd" d="M11.106 18.395C10.3573 18.6402 10.8355 19.7951 11.5653 19.5673C12.3148 19.3319 11.8711 18.144 11.106 18.395Z" fill="#F3C3B0"/>
<path fill-rule="evenodd" clip-rule="evenodd" d="M28.3399 18.5927C27.8839 18.7537 27.7977 20.6022 28.3742 20.5268C28.8489 20.4647 28.8489 18.4151 28.3399 18.5927Z" fill="white"/>
<path fill-rule="evenodd" clip-rule="evenodd" d="M6.24971 30.0283C6.12945 30.4468 7.73114 31.7136 8.17944 31.5582C8.32631 31.1275 6.65052 29.8118 6.24971 30.0283Z" fill="white"/>
<path fill-rule="evenodd" clip-rule="evenodd" d="M3.07797 23.2335C2.58021 23.4111 3.20044 25.131 3.73382 24.8888C4.18652 24.6845 3.59905 23.0469 3.07797 23.2335Z" fill="#F3C3B0"/>
<path fill-rule="evenodd" clip-rule="evenodd" d="M3.52951 27.0173C3.77246 27.8877 5.13802 29.2789 4.92497 28.3907C4.70313 27.466 3.28107 26.1258 3.52951 27.0173Z" fill="white"/>
<path fill-rule="evenodd" clip-rule="evenodd" d="M9.47995 14.9677C8.76122 15.222 9.07365 16.37 9.79018 16.1246C10.4504 15.8981 10.1919 14.7156 9.47995 14.9677Z" fill="#F3C3B0"/>
<path fill-rule="evenodd" clip-rule="evenodd" d="M10.0383 32.5577C10.0526 32.9597 12.1028 33.7568 12.0474 33.2615C11.9999 32.8396 10.0216 32.0891 10.0383 32.5577Z" fill="white"/>
<path fill-rule="evenodd" clip-rule="evenodd" d="M26.2929 12.5027C25.9231 12.7347 26.8958 14.3135 27.323 14.0681C27.7016 13.8505 26.7091 12.2407 26.2929 12.5027Z" fill="white"/>
<path fill-rule="evenodd" clip-rule="evenodd" d="M3.57787 20.8319C3.09659 21.0238 3.34174 22.5117 3.876 22.364C4.38278 22.224 4.09015 20.6276 3.57787 20.8319Z" fill="#F3C3B0"/>
<path fill-rule="evenodd" clip-rule="evenodd" d="M4.28123 18.7291C4.12996 18.8069 4.09369 18.8511 4.02179 19.0267C3.95671 19.1855 3.94022 19.3531 3.96001 19.5286C3.99211 19.8219 4.18405 20.1894 4.53297 20.0326C5.04195 19.805 4.88497 18.416 4.28123 18.7291Z" fill="#F3C3B0"/>
<path fill-rule="evenodd" clip-rule="evenodd" d="M5.15453 16.6784C4.56728 16.9117 4.69744 18.0363 5.3113 17.8265C5.90074 17.6255 5.76839 16.4354 5.15453 16.6784Z" fill="#F3C3B0"/>
<path fill-rule="evenodd" clip-rule="evenodd" d="M2.51594 17.4179C2.01245 17.6542 2.08655 19.0088 2.6461 18.7446C3.09439 18.5336 3.0878 17.1503 2.51594 17.4179Z" fill="#F3C3B0"/>
<path fill-rule="evenodd" clip-rule="evenodd" d="M6.24966 14.8221C5.57072 14.9786 5.54874 16.0646 6.19777 15.9401C6.82702 15.8202 6.88572 14.6766 6.24966 14.8221Z" fill="#F3C3B0"/>
<path fill-rule="evenodd" clip-rule="evenodd" d="M4.35728 13.523C3.88479 13.6784 3.78102 14.7975 4.2889 14.6589C4.72488 14.5401 4.86406 13.3543 4.35728 13.523Z" fill="#F3C3B0"/>
<path fill-rule="evenodd" clip-rule="evenodd" d="M3.42357 15.4028C2.99638 15.5428 2.84731 16.6718 3.33299 16.5652C3.77667 16.4686 3.90485 15.2451 3.42357 15.4028Z" fill="#F3C3B0"/>
<circle cx="30.919" cy="6.54054" r="6.54054" fill="white"/>
<g clip-path="url(#clip0_2621_76259)">
<path d="M30.802 4.54553V8.76963" stroke="#B2171E" stroke-width="1.20689" stroke-linecap="round" stroke-linejoin="round"/>
<path d="M28.6901 6.65747H32.9142" stroke="#B2171E" stroke-width="1.20689" stroke-linecap="round" stroke-linejoin="round"/>
</g>
<defs>
<clipPath id="clip0_2621_76259">
<rect width="7.24131" height="7.24131" fill="white" transform="translate(27.1814 3.03687)"/>
</clipPath>
</defs>
</svg>
