<svg width="38" height="38" viewBox="0 0 38 38" fill="none" xmlns="http://www.w3.org/2000/svg">
<path fill-rule="evenodd" clip-rule="evenodd" d="M10.0385 32.5577C10.022 32.0891 12.0003 32.8396 12.0476 33.2615C12.1027 33.7566 10.0527 32.9594 10.0385 32.5577ZM19.8724 32.5C19.4296 33.3283 16.5519 33.6491 16.9755 32.9818C17.4491 32.2357 20.2908 31.715 19.8724 32.5ZM12.3745 32.2968C12.3435 31.6984 13.9586 31.7561 14.3053 31.8039C14.7006 31.8594 15.9778 32.1391 15.9591 32.6733C15.9371 33.284 14.4412 33.1996 14.0483 33.1374C13.6862 33.0786 12.3978 32.7512 12.3747 32.297L12.3745 32.2968ZM19.3096 30.5271C19.1816 31.1412 18.2897 31.5352 17.7321 31.6252C17.1813 31.7128 15.8323 31.594 16.0242 30.748C16.2098 29.9286 17.7961 29.3824 18.772 29.7477C19.0856 29.8653 19.3859 30.1618 19.3096 30.5271ZM8.26219 30.295C8.02364 29.1325 11.2517 30.367 11.5056 31.4607C11.7815 32.6466 8.48623 31.3897 8.26219 30.295ZM22.8951 30.266C22.7526 30.6713 22.1278 31.1054 21.7514 31.2873C21.4003 31.4561 20.0855 31.7793 20.3284 31.0176C20.516 30.4303 21.6476 29.793 22.3509 29.7607C22.6645 29.7464 23.0332 29.8751 22.8951 30.266ZM6.24957 30.0285C6.65038 29.812 8.32617 31.1277 8.1793 31.5584C7.731 31.7139 6.12931 30.4471 6.24957 30.0285ZM11.4878 29.6864C11.2692 28.7162 12.5167 28.4729 13.2034 28.5662C13.8271 28.6518 14.7323 29.0693 14.8759 29.751C15.0757 30.6936 13.8493 30.938 13.1801 30.8546C12.5585 30.7768 11.639 30.3617 11.4878 29.6867V29.6864ZM22.2126 27.8301C22.0803 28.4541 21.4785 29.0103 20.8647 29.1458C20.1273 29.3101 19.1988 28.9826 19.4085 28.0588C19.5576 27.3994 20.1185 26.9176 20.751 26.7442C21.5161 26.5355 22.4015 26.9342 22.2126 27.8301ZM14.7996 27.6269C14.6384 26.742 15.4708 26.158 16.2656 26.1348C17.0239 26.1114 17.8829 26.5633 18.0221 27.3695C18.329 29.1493 15.1265 29.4158 14.7996 27.6271V27.6269ZM5.09354 27.5391C4.95107 26.9507 5.33869 26.842 5.81227 27.0319C6.1159 27.1528 6.41381 27.3616 6.66226 27.5692C8.26967 28.9092 8.30616 30.7602 6.26255 29.1602C5.84855 28.836 5.2182 28.0588 5.09354 27.5391ZM25.2076 27.5692C24.7947 29.0136 22.7788 29.6144 23.1532 28.3476C23.2979 27.86 23.6897 27.4259 24.0916 27.144C24.596 26.7887 25.4583 26.6942 25.2076 27.5692ZM7.62371 27.2495C7.42935 25.4642 10.3737 26.5233 10.589 28.2932C10.7238 29.3979 9.57345 29.3545 8.87671 28.9393C8.30045 28.5963 7.70088 27.9522 7.62371 27.2495ZM3.52922 27.0175C3.28078 26.126 4.70263 27.4662 4.92469 28.3909C5.13773 29.2791 3.77217 27.8878 3.52922 27.0175ZM5.6654 25.2789C6.37973 25.0157 7.19982 26.5746 6.4569 26.8734C5.74807 27.1575 4.85169 25.5776 5.6654 25.2789ZM10.6552 25.9161C10.525 24.9136 11.3594 24.3119 12.2923 24.5461C13.0396 24.7338 13.7053 25.3987 13.8014 26.1848C13.9261 27.2006 13.1027 27.768 12.1621 27.546C11.428 27.3729 10.7545 26.6755 10.6552 25.9161ZM26.3612 24.0499C27.3449 23.7945 26.9452 26.1016 25.9494 26.2272C24.8798 26.3628 25.4086 24.2975 26.3612 24.0499ZM18.8674 23.2671C19.6315 23.0962 20.3722 23.5835 20.5333 24.3486C20.6934 25.1113 20.1767 25.8421 19.436 26.0008C18.6698 26.1651 17.9412 25.6932 17.769 24.9295C17.5947 24.1556 18.121 23.4338 18.8674 23.2673V23.2671ZM23.3981 23.5026C24.8895 23.1696 24.7228 25.8664 23.2304 26.1306C21.6628 26.4092 21.8659 23.8456 23.3981 23.5026ZM8.70125 24.0112C9.48176 23.7304 10.239 25.1214 9.43537 25.429C8.66256 25.7255 7.79938 24.3376 8.70125 24.0112ZM3.07763 23.2339C3.5987 23.0473 4.18595 24.6852 3.73347 24.8892C3.20031 25.1314 2.57986 23.4115 3.07763 23.2339ZM5.69728 23.054C6.4292 22.6887 7.18751 24.5096 6.48659 24.7838C6.09369 24.9381 5.72586 24.4985 5.57592 24.1954C5.43894 23.9201 5.35518 23.5269 5.49523 23.2339C5.5724 23.0719 5.5735 23.1163 5.69728 23.054ZM14.5984 22.1356C15.3547 22.0092 16.1759 22.4888 16.4564 23.1992C16.7788 24.0209 16.3538 24.8368 15.4827 24.9812C14.7088 25.1101 13.8843 24.6259 13.6015 23.8964C13.2836 23.077 13.7484 22.2787 14.5984 22.1354V22.1356ZM9.33468 21.9581C10.1968 21.6748 10.7776 23.1382 9.90214 23.3693C9.05215 23.5935 8.4781 22.2389 9.33468 21.9581ZM27.6437 21.1419C28.3558 20.8512 28.1859 23.2448 27.4814 23.3414C26.7297 23.4447 27.0111 21.4006 27.6437 21.1419ZM21.0045 20.3125C21.7111 20.1714 22.3591 20.6634 22.4982 21.3562C22.6363 22.0423 22.1803 22.7462 21.5025 22.8861C19.8311 23.2326 19.2946 20.6513 21.0047 20.3125H21.0045ZM25.0638 20.3081C26.3058 19.9362 26.4692 22.5797 25.2604 22.9538C24.5408 23.1769 24.1973 22.361 24.2116 21.7681C24.2248 21.2162 24.4931 20.479 25.0638 20.3081ZM3.57759 20.8321C4.08987 20.6278 4.38229 22.2243 3.87573 22.3643C3.34146 22.512 3.09632 21.0241 3.57759 20.8321ZM6.38831 20.7344C7.2284 20.579 7.75387 22.1677 6.94808 22.3209C6.08138 22.4863 5.51941 20.8943 6.38831 20.7344ZM16.9553 19.3765C17.6639 19.2655 18.3816 19.7529 18.6256 20.4114C18.9004 21.1519 18.5218 21.9457 17.7237 22.0702C15.9585 22.3466 15.1604 19.6587 16.9553 19.3767V19.3765ZM10.0853 19.9848C10.8139 19.7261 11.3592 21.055 10.6185 21.2828C9.91313 21.4993 9.36656 20.2402 10.0853 19.9848ZM28.3391 18.5926C28.8479 18.4151 28.8479 20.4646 28.3734 20.5268C27.7971 20.6022 27.8833 18.7536 28.3391 18.5926ZM7.33745 18.607C8.07267 18.2895 8.41038 19.7595 7.72595 20.0237C7.01601 20.2979 6.59894 18.9268 7.33745 18.607ZM4.28071 18.7291C4.88445 18.416 5.04143 19.8048 4.53245 20.0326C4.18353 20.1891 3.99159 19.8216 3.95949 19.5286C3.93971 19.3533 3.95619 19.1857 4.02127 19.0267C4.09317 18.8514 4.12945 18.8069 4.28071 18.7291ZM11.1054 18.395C11.8706 18.144 12.3142 19.3321 11.5647 19.5673C10.835 19.7949 10.357 18.6402 11.1054 18.395ZM22.4255 17.4479C23.0182 17.288 23.5538 17.782 23.7271 18.324C23.908 18.8936 23.6917 19.6085 23.0734 19.7686C21.8061 20.0949 21.0421 17.8201 22.4255 17.4481V17.4479ZM26.0266 17.2447C26.5411 17.0526 26.8867 17.8088 26.9837 18.2072C27.0841 18.6236 27.0465 19.5474 26.5433 19.6883C25.6082 19.9503 25.0706 17.602 26.0266 17.2445V17.2447ZM2.51566 17.4178C3.08752 17.1503 3.09412 18.5336 2.64582 18.7446C2.08605 19.0088 2.01218 17.6542 2.51566 17.4178ZM18.5253 16.5163C20.0985 16.1256 20.8988 18.6402 19.3786 18.9823C17.8143 19.3354 17.0028 16.8938 18.5253 16.5163ZM5.15422 16.6784C5.76808 16.4352 5.90043 17.6255 5.31098 17.8265C4.69713 18.0363 4.56697 16.9117 5.15422 16.6784ZM8.35453 16.5053C9.08096 16.2377 9.41317 17.7188 8.68674 17.9463C7.96911 18.1716 7.6158 16.7773 8.35453 16.5053ZM3.42325 15.4028C3.90453 15.2451 3.77657 16.4688 3.33267 16.5652C2.84699 16.6718 2.99606 15.5425 3.42325 15.4028ZM23.2801 14.681C24.4403 14.4356 25.1159 16.5953 24.034 16.8471C22.8727 17.1169 22.1627 14.9174 23.2801 14.681ZM9.47957 14.9676C10.1915 14.7155 10.45 15.8981 9.78979 16.1245C9.07326 16.37 8.76084 15.2219 9.47957 14.9676ZM26.3722 14.6678C26.9927 14.2947 27.8328 16.3465 27.2831 16.6941C26.6791 17.0738 25.7454 15.0452 26.3722 14.6678ZM6.24936 14.8221C6.8852 14.6766 6.82671 15.8203 6.19747 15.9401C5.54844 16.0644 5.57042 14.9784 6.24936 14.8221ZM19.5631 13.9306C20.1259 13.7751 20.7167 14.1249 21.0159 14.5822C21.3449 15.0841 21.2578 15.8225 20.6063 15.979C19.2562 16.3021 18.2472 14.297 19.5631 13.9306ZM4.35722 13.523C4.864 13.3543 4.72483 14.54 4.28885 14.6589C3.78096 14.7978 3.88474 13.6785 4.35722 13.523ZM23.5925 12.3319C24.3917 12.101 25.2738 13.8784 24.4801 14.0794C23.6677 14.2859 22.7779 12.5682 23.5925 12.3319ZM26.2928 12.5028C26.709 12.2408 27.7015 13.8507 27.3229 14.0681C26.8957 14.3135 25.923 12.7347 26.2928 12.5028ZM20.0246 11.6112C21.039 11.2816 22.2535 12.9147 21.2026 13.2477C20.178 13.5719 18.9097 11.9732 20.0246 11.6112ZM0 37.4595H30.7431V6.54053H29.6756H0.144889H0.000219862V37.4595H0Z" fill="#B2181E"/>
<path fill-rule="evenodd" clip-rule="evenodd" d="M10.6556 25.9159C10.755 26.6752 11.4284 27.3726 12.1625 27.5458C13.1031 27.7678 13.9267 27.2004 13.8018 26.1845C13.7057 25.3985 13.0402 24.7333 12.2927 24.5458C11.3598 24.3117 10.5252 24.9133 10.6556 25.9159Z" fill="white"/>
<path fill-rule="evenodd" clip-rule="evenodd" d="M14.7997 27.627C15.1267 29.4156 18.3292 29.1492 18.0223 27.3694C17.8831 26.5634 17.0243 26.1114 16.2658 26.1346C15.471 26.1581 14.6386 26.7421 14.7997 27.6268V27.627Z" fill="white"/>
<path fill-rule="evenodd" clip-rule="evenodd" d="M14.599 22.1354C13.749 22.2787 13.2843 23.077 13.6022 23.8964C13.8847 24.6259 14.7094 25.1099 15.4833 24.9812C16.3544 24.8369 16.7794 24.0209 16.4571 23.1992C16.1765 22.4886 15.3554 22.009 14.599 22.1357V22.1354Z" fill="white"/>
<path fill-rule="evenodd" clip-rule="evenodd" d="M18.8678 23.2667C18.1216 23.4332 17.595 24.1549 17.7694 24.9288C17.9415 25.6928 18.6701 26.1645 19.4364 26.0002C20.1771 25.8414 20.6937 25.1108 20.5337 24.348C20.3725 23.5829 19.6318 23.0955 18.8678 23.2665V23.2667Z" fill="white"/>
<path fill-rule="evenodd" clip-rule="evenodd" d="M11.488 29.6865C11.6393 30.3616 12.5589 30.7768 13.1803 30.8544C13.8493 30.9378 15.0759 30.6935 14.8761 29.7508C14.7325 29.0691 13.8273 28.6517 13.2036 28.5661C12.5169 28.4728 11.2694 28.716 11.488 29.6863V29.6865Z" fill="white"/>
<path fill-rule="evenodd" clip-rule="evenodd" d="M7.62395 27.2492C7.70135 27.9522 8.30069 28.5961 8.87695 28.939C9.57347 29.3543 10.7238 29.3974 10.5892 28.2929C10.374 26.5231 7.4296 25.4639 7.62395 27.2492Z" fill="white"/>
<path fill-rule="evenodd" clip-rule="evenodd" d="M16.9559 19.3765C15.1609 19.6584 15.959 22.3464 17.7243 22.07C18.5224 21.9455 18.901 21.1516 18.6262 20.4111C18.3823 19.7526 17.6647 19.2653 16.9559 19.3763V19.3765Z" fill="white"/>
<path fill-rule="evenodd" clip-rule="evenodd" d="M22.2127 27.8299C22.4015 26.9339 21.5161 26.5352 20.751 26.7439C20.1185 26.9171 19.5576 27.3989 19.4085 28.0585C19.1988 28.9823 20.1273 29.3098 20.8647 29.1455C21.4785 29.01 22.0801 28.4539 22.2127 27.8299Z" fill="white"/>
<path fill-rule="evenodd" clip-rule="evenodd" d="M21.0051 20.3123C19.295 20.6508 19.8317 23.2322 21.5028 22.8859C22.1807 22.7459 22.6367 22.0421 22.4986 21.356C22.3594 20.6632 21.7115 20.1712 21.0048 20.3123H21.0051Z" fill="white"/>
<path fill-rule="evenodd" clip-rule="evenodd" d="M19.3096 30.527C19.3857 30.1617 19.0856 29.8652 18.772 29.7475C17.7961 29.3822 16.2098 29.9284 16.0242 30.7479C15.832 31.5939 17.1811 31.7126 17.7321 31.6251C18.2897 31.5351 19.1816 31.141 19.3096 30.527Z" fill="white"/>
<path fill-rule="evenodd" clip-rule="evenodd" d="M18.5256 16.5163C17.0033 16.8938 17.8146 19.3354 19.3789 18.9823C20.899 18.6402 20.0987 16.1256 18.5256 16.5163Z" fill="white"/>
<path fill-rule="evenodd" clip-rule="evenodd" d="M23.3984 23.5022C21.8662 23.8451 21.663 26.4088 23.2307 26.1302C24.7233 25.866 24.89 23.1692 23.3984 23.5022Z" fill="white"/>
<path fill-rule="evenodd" clip-rule="evenodd" d="M5.09355 27.5391C5.21821 28.0588 5.84856 28.836 6.26256 29.1602C8.30595 30.76 8.26968 28.9092 6.66227 27.5692C6.41382 27.3616 6.11591 27.1528 5.81228 27.0319C5.3387 26.8419 4.9513 26.9507 5.09355 27.5391Z" fill="white"/>
<path fill-rule="evenodd" clip-rule="evenodd" d="M8.2621 30.2947C8.48636 31.3895 11.7816 32.6463 11.5055 31.4605C11.2516 30.3668 8.02355 29.1323 8.2621 30.2947Z" fill="white"/>
<path fill-rule="evenodd" clip-rule="evenodd" d="M25.0643 20.3079C24.4935 20.4788 24.2253 21.216 24.2121 21.7679C24.1978 22.3607 24.541 23.1769 25.2608 22.9535C26.4696 22.5794 26.3063 19.9359 25.0643 20.3079Z" fill="white"/>
<path fill-rule="evenodd" clip-rule="evenodd" d="M22.4257 17.4479C21.0425 17.8198 21.8063 20.0949 23.0736 19.7683C23.6919 19.6084 23.9082 18.8933 23.7273 18.3237C23.5538 17.782 23.0184 17.2878 22.4257 17.4476V17.4479Z" fill="white"/>
<path fill-rule="evenodd" clip-rule="evenodd" d="M12.3744 32.2966C12.3977 32.7508 13.6859 33.0782 14.048 33.1371C14.4409 33.1992 15.9369 33.2837 15.9588 32.6729C15.9775 32.1389 14.7004 31.8592 14.305 31.8035C13.9583 31.7557 12.3434 31.698 12.3742 32.2964L12.3744 32.2966Z" fill="white"/>
<path fill-rule="evenodd" clip-rule="evenodd" d="M19.5635 13.9305C18.2476 14.2969 19.2565 16.302 20.6067 15.979C21.2579 15.8224 21.3452 15.0841 21.0163 14.5821C20.7171 14.1246 20.1265 13.7748 19.5635 13.9305Z" fill="white"/>
<path fill-rule="evenodd" clip-rule="evenodd" d="M23.2804 14.681C22.1631 14.9176 22.873 17.1169 24.0343 16.8471C25.1163 16.595 24.4406 14.4356 23.2804 14.681Z" fill="white"/>
<path fill-rule="evenodd" clip-rule="evenodd" d="M25.2076 27.5693C25.4583 26.6943 24.596 26.7887 24.0916 27.144C23.6897 27.426 23.2979 27.86 23.1533 28.3476C22.779 29.6144 24.7947 29.0136 25.2076 27.5693Z" fill="white"/>
<path fill-rule="evenodd" clip-rule="evenodd" d="M26.0269 17.2447C25.071 17.6023 25.6085 19.9506 26.5436 19.6886C27.0471 19.5475 27.0845 18.6239 26.984 18.2075C26.8868 17.8088 26.5414 17.0528 26.0269 17.245V17.2447Z" fill="white"/>
<path fill-rule="evenodd" clip-rule="evenodd" d="M22.895 30.266C23.0331 29.8752 22.6641 29.7463 22.3508 29.7607C21.6475 29.793 20.5161 30.4303 20.3283 31.0176C20.0854 31.7793 21.4002 31.456 21.7513 31.2873C22.1277 31.1053 22.7525 30.6713 22.895 30.266Z" fill="white"/>
<path fill-rule="evenodd" clip-rule="evenodd" d="M20.0248 11.6112C18.9099 11.9732 20.1783 13.5719 21.2028 13.2477C22.2538 12.9147 21.0395 11.2815 20.0248 11.6112Z" fill="white"/>
<path fill-rule="evenodd" clip-rule="evenodd" d="M26.3616 24.0495C25.4089 24.2971 24.8799 26.3622 25.9498 26.2268C26.9455 26.1012 27.3453 23.7943 26.3616 24.0495Z" fill="white"/>
<path fill-rule="evenodd" clip-rule="evenodd" d="M19.8722 32.4997C20.2906 31.7147 17.4491 32.2355 16.9753 32.9815C16.5514 33.6489 19.4294 33.3278 19.8722 32.4997Z" fill="white"/>
<path fill-rule="evenodd" clip-rule="evenodd" d="M23.5929 12.3319C22.7781 12.5683 23.6679 14.286 24.4805 14.0794C25.2742 13.8784 24.3921 12.1011 23.5929 12.3319Z" fill="white"/>
<path fill-rule="evenodd" clip-rule="evenodd" d="M26.3725 14.6678C25.7455 15.0453 26.6795 17.0738 27.2834 16.6942C27.8331 16.3466 26.993 14.2948 26.3725 14.6678Z" fill="white"/>
<path fill-rule="evenodd" clip-rule="evenodd" d="M27.6442 21.1417C27.0117 21.4004 26.7303 23.4444 27.482 23.3411C28.1864 23.2445 28.3564 20.8509 27.6442 21.1417Z" fill="white"/>
<path fill-rule="evenodd" clip-rule="evenodd" d="M5.69769 23.0535C5.57391 23.1156 5.57281 23.0712 5.49564 23.2335C5.35537 23.5267 5.43935 23.9196 5.57633 24.1949C5.72649 24.498 6.0941 24.9376 6.48699 24.7833C7.18791 24.5091 6.42961 22.6882 5.69769 23.0535Z" fill="#F3C3B0"/>
<path fill-rule="evenodd" clip-rule="evenodd" d="M6.38866 20.7342C5.51976 20.8941 6.08173 22.4864 6.94843 22.3207C7.75422 22.1675 7.22875 20.5788 6.38866 20.7342Z" fill="#F3C3B0"/>
<path fill-rule="evenodd" clip-rule="evenodd" d="M5.66575 25.2787C4.85204 25.5774 5.74842 27.1573 6.45725 26.8732C7.20016 26.5744 6.37986 25.0156 5.66575 25.2787Z" fill="#F3C3B0"/>
<path fill-rule="evenodd" clip-rule="evenodd" d="M8.70154 24.0107C7.79944 24.3371 8.66284 25.7251 9.43566 25.4285C10.2395 25.121 9.48205 23.7299 8.70154 24.0107Z" fill="#F3C3B0"/>
<path fill-rule="evenodd" clip-rule="evenodd" d="M9.33513 21.9579C8.47833 22.2387 9.05261 23.5933 9.90259 23.369C10.7781 23.1382 10.1974 21.6746 9.33513 21.9579Z" fill="#F3C3B0"/>
<path fill-rule="evenodd" clip-rule="evenodd" d="M8.3549 16.5052C7.61638 16.7772 7.96948 18.1718 8.68711 17.9463C9.41353 17.7187 9.0811 16.2377 8.3549 16.5052Z" fill="#F3C3B0"/>
<path fill-rule="evenodd" clip-rule="evenodd" d="M7.33826 18.6071C6.59974 18.9268 7.01704 20.298 7.72675 20.0238C8.41118 19.7595 8.07348 18.2895 7.33826 18.6071Z" fill="#F3C3B0"/>
<path fill-rule="evenodd" clip-rule="evenodd" d="M10.0857 19.9848C9.36702 20.2402 9.9136 21.4992 10.6189 21.2828C11.3596 21.0552 10.8144 19.7261 10.0857 19.9848Z" fill="#F3C3B0"/>
<path fill-rule="evenodd" clip-rule="evenodd" d="M11.1061 18.395C10.3575 18.6402 10.8357 19.7951 11.5654 19.5673C12.3149 19.3319 11.8712 18.144 11.1061 18.395Z" fill="#F3C3B0"/>
<path fill-rule="evenodd" clip-rule="evenodd" d="M28.3398 18.5927C27.8838 18.7537 27.7976 20.6022 28.3741 20.5268C28.8487 20.4647 28.8487 18.4151 28.3398 18.5927Z" fill="white"/>
<path fill-rule="evenodd" clip-rule="evenodd" d="M6.24959 30.0283C6.12933 30.4468 7.73102 31.7136 8.17932 31.5582C8.32619 31.1275 6.6504 29.8118 6.24959 30.0283Z" fill="white"/>
<path fill-rule="evenodd" clip-rule="evenodd" d="M3.07797 23.2335C2.58021 23.4111 3.20044 25.131 3.73382 24.8888C4.18652 24.6845 3.59905 23.0469 3.07797 23.2335Z" fill="#F3C3B0"/>
<path fill-rule="evenodd" clip-rule="evenodd" d="M3.52951 27.0173C3.77246 27.8877 5.13802 29.2789 4.92497 28.3907C4.70313 27.466 3.28107 26.1258 3.52951 27.0173Z" fill="white"/>
<path fill-rule="evenodd" clip-rule="evenodd" d="M9.47995 14.9677C8.76122 15.222 9.07365 16.37 9.79018 16.1246C10.4504 15.8981 10.1919 14.7156 9.47995 14.9677Z" fill="#F3C3B0"/>
<path fill-rule="evenodd" clip-rule="evenodd" d="M10.0384 32.5577C10.0527 32.9597 12.1029 33.7568 12.0475 33.2615C12 32.8396 10.0217 32.0891 10.0384 32.5577Z" fill="white"/>
<path fill-rule="evenodd" clip-rule="evenodd" d="M26.2929 12.5027C25.9231 12.7347 26.8958 14.3135 27.323 14.0681C27.7016 13.8505 26.7091 12.2407 26.2929 12.5027Z" fill="white"/>
<path fill-rule="evenodd" clip-rule="evenodd" d="M3.57787 20.8319C3.09659 21.0238 3.34174 22.5117 3.876 22.364C4.38278 22.224 4.09015 20.6276 3.57787 20.8319Z" fill="#F3C3B0"/>
<path fill-rule="evenodd" clip-rule="evenodd" d="M4.28123 18.7291C4.12996 18.8069 4.09369 18.8511 4.02179 19.0267C3.95671 19.1855 3.94022 19.3531 3.96001 19.5286C3.99211 19.8219 4.18405 20.1894 4.53297 20.0326C5.04195 19.805 4.88497 18.416 4.28123 18.7291Z" fill="#F3C3B0"/>
<path fill-rule="evenodd" clip-rule="evenodd" d="M5.15453 16.6784C4.56728 16.9117 4.69744 18.0363 5.3113 17.8265C5.90074 17.6255 5.76839 16.4354 5.15453 16.6784Z" fill="#F3C3B0"/>
<path fill-rule="evenodd" clip-rule="evenodd" d="M2.51594 17.4179C2.01245 17.6542 2.08655 19.0088 2.6461 18.7446C3.09439 18.5336 3.0878 17.1503 2.51594 17.4179Z" fill="#F3C3B0"/>
<path fill-rule="evenodd" clip-rule="evenodd" d="M6.24966 14.8221C5.57072 14.9786 5.54874 16.0646 6.19777 15.9401C6.82702 15.8202 6.88572 14.6766 6.24966 14.8221Z" fill="#F3C3B0"/>
<path fill-rule="evenodd" clip-rule="evenodd" d="M4.35728 13.523C3.88479 13.6784 3.78102 14.7975 4.2889 14.6589C4.72488 14.5401 4.86406 13.3543 4.35728 13.523Z" fill="#F3C3B0"/>
<path fill-rule="evenodd" clip-rule="evenodd" d="M3.42369 15.4028C2.9965 15.5428 2.84743 16.6718 3.33311 16.5652C3.77679 16.4686 3.90497 15.2451 3.42369 15.4028Z" fill="#F3C3B0"/>
<circle cx="30.919" cy="6.54054" r="6.54054" fill="white"/>
<path d="M30.802 4.54553V8.76963" stroke="#B2171E" stroke-width="1.20689" stroke-linecap="round" stroke-linejoin="round"/>
<path d="M28.6899 6.65747H32.914" stroke="#B2171E" stroke-width="1.20689" stroke-linecap="round" stroke-linejoin="round"/>
</svg>
